<?xml version="1.0" encoding="utf-8"?>
<!-- Generator: Adobe Illustrator 24.1.1, SVG Export Plug-In . SVG Version: 6.00 Build 0)  -->
<svg version="1.1" id="Layer_1" xmlns="http://www.w3.org/2000/svg" xmlns:xlink="http://www.w3.org/1999/xlink" x="0px" y="0px"
	 viewBox="0 0 122.9 114.4" style="enable-background:new 0 0 122.9 114.4;" xml:space="preserve">
<style type="text/css">
	.st0{fill:#F17300;}
</style>
<g>
	<path class="st0" d="M66.1,84.5l5.4-0.9l0,0c0.6-0.1,1.2,0.2,1.5,0.8l4.3,8.2l5.5-1.1l0,0c0.7-0.1,1.3,0.2,1.6,0.8l3.8,8.3l6.2-1.2
		l0,0c0.6-0.1,1.2,0.2,1.6,0.7l4.6,8.4l9.3-9.3L69,58.4l0,0c-0.1-0.1-0.2-0.1-0.3-0.2s-0.2-0.2-0.2-0.3L47.2,36.5L26.8,56.9l5.3,3.7
		l5.5-1.2l0,0c0.6-0.1,1.2,0.1,1.6,0.7l5,8.3l4.6-0.7c0.6-0.1,1.2,0.2,1.5,0.7l3.1,5.4c0.2,0.2,0.3,0.4,0.3,0.6l1.2,2.1l5.2-0.8l0,0
		c0.6-0.1,1.2,0.2,1.5,0.8l3.6,6.7 M80.5,0.2l8.1,8.1c0.3,0.3,0.3,0.7,0,0.9l-1.3,1.3l0,0c0.1,0.1,0.2,0.2,0.2,0.3l10.2,14.3
		c2.2-0.1,4.3,0.3,6.1,1.1c2.7,1.1,4.9,3,6.6,5.3c1.7,2.3,2.7,5.1,3,8c0.2,2.3-0.1,4.6-0.9,6.9l9.9,14.1c0.4,0.6,0.3,1.5-0.3,2l0,0
		l-2.7,2.2c-0.6,0.4-1.3,0.4-1.9,0L104,54.5c-2.7,1.3-5.7,1.7-8.6,1.3l-0.2,0L82.9,68.2L113,98.3c0.6,0.6,0.6,1.5,0,2.1L101.3,112
		c-0.6,0.6-1.5,0.6-2.1,0c-0.1-0.1-0.2-0.3-0.3-0.4l-5-9.1l-6.3,1.2c-0.7,0.1-1.3-0.2-1.6-0.8l0,0l-3.8-8.3l-5.5,1.1
		c-0.7,0.1-1.3-0.2-1.6-0.8L71,86.7l-5.5,0.9c-0.5,0.1-1-0.1-1.4-0.5l-24.3,24.5c-3.1,3.1-6.8,3.4-9.9,2.1c-1.2-0.5-2.3-1.2-3.1-2.1
		c-0.9-0.9-1.6-2-2.1-3.1c-1.3-3.1-1-6.8,2.1-9.9l23.8-23.9l-2.2-3.9l-4.7,0.7c-0.6,0.1-1.2-0.2-1.5-0.8l-4.9-8.2l-5,1.1
		c-0.4,0.1-0.9,0-1.2-0.3L24.7,59l-0.9,0.9c-0.5,0.5-1.1,0.7-1.7,0.7s-1.2-0.2-1.7-0.7l0,0L4.8,44.3c-0.1,0-0.2-0.1-0.2-0.2L0.4,40
		c-0.6-0.6-0.6-1.5,0-2.1s1.5-0.6,2.1,0L5.6,41l25.6-25.6l-3.1-3.1c-0.6-0.6-0.6-1.5,0-2.1s1.5-0.6,2.1,0l4,4c0,0,0.1,0.1,0.1,0.1
		l15.8,15.8c0.5,0.5,0.7,1.1,0.7,1.7c0,0.6-0.2,1.2-0.7,1.7l0,0l0,0l-0.9,0.9l20.6,20.6l12.3-12.4c-0.1-1-0.1-2,0-3l-13.8-9.7
		c-0.1-0.1-0.2-0.1-0.2-0.2l-1.5,1.5c-0.3,0.3-0.7,0.3-0.9,0l-8.1-8.1c-0.3-0.3-0.3-0.7,0-0.9l22-22C79.8-0.1,80.3-0.1,80.5,0.2
		L80.5,0.2z M33.2,17.5L7.7,43.1L22,57.5l25.6-25.6L33.2,17.5L33.2,17.5z M80.9,66.1l11-11.1c-2.2-0.8-4.1-2-5.7-3.6
		c-1.5-1.5-2.7-3.3-3.4-5.3l-11,11L80.9,66.1L80.9,66.1z M62.6,84.5l-3.1-5.7l-5.2,0.8c-0.6,0.1-1.2-0.2-1.5-0.7L52,77.2l-23.2,23.3
		c-2.1,2.2-2.3,4.7-1.5,6.7c0.4,0.8,0.9,1.6,1.5,2.2c0.6,0.6,1.4,1.2,2.2,1.5c2,0.9,4.5,0.6,6.7-1.5L62.6,84.5L62.6,84.5z
		 M86.2,13.8L71.4,28.5l13.1,9.2l0,0c0.4,0.3,0.7,0.8,0.6,1.4c-0.4,3,0.2,5.5,1.3,7.6c1,1.7,2.3,3.1,3.9,4.2c1.6,1,3.5,1.7,5.4,2
		c2.6,0.3,5.3-0.1,7.7-1.4l0,0c0.5-0.3,1.1-0.3,1.6,0.1l13.7,10l0.8-0.6l-9.6-13.6l0,0c-0.3-0.4-0.3-0.9-0.2-1.4
		c0.9-2.1,1.2-4.3,0.9-6.3c-0.2-2.4-1.1-4.7-2.5-6.6c-1.4-1.9-3.2-3.4-5.3-4.3c-1.7-0.7-3.6-1-5.6-0.8c-0.5,0.1-1.1-0.1-1.4-0.6
		L86.2,13.8L86.2,13.8z"/>
</g>
</svg>
