<?xml version="1.0" encoding="UTF-8" standalone="no"?>
<!-- Created with Inkscape (http://www.inkscape.org/) -->

<svg
   width="100"
   height="100"
   viewBox="0 0 26.458333 26.458334"
   version="1.1"
   id="svg5"
   inkscape:version="1.1 (c68e22c387, 2021-05-23)"
   sodipodi:docname="logo_white.svg"
   inkscape:export-filename="C:\Users\cyham\Documents\Website\Personal-Website\Resources and Other Documents\Logo\logo.png"
   inkscape:export-xdpi="96"
   inkscape:export-ydpi="96"
   xmlns:inkscape="http://www.inkscape.org/namespaces/inkscape"
   xmlns:sodipodi="http://sodipodi.sourceforge.net/DTD/sodipodi-0.dtd"
   xmlns="http://www.w3.org/2000/svg"
   xmlns:svg="http://www.w3.org/2000/svg">
  <sodipodi:namedview
     id="namedview7"
     pagecolor="#ffffff"
     bordercolor="#666666"
     borderopacity="1.0"
     inkscape:pageshadow="2"
     inkscape:pageopacity="0.0"
     inkscape:pagecheckerboard="0"
     inkscape:document-units="mm"
     showgrid="false"
     units="px"
     inkscape:zoom="6.1433221"
     inkscape:cx="60.879113"
     inkscape:cy="46.636005"
     inkscape:window-width="2321"
     inkscape:window-height="1321"
     inkscape:window-x="70"
     inkscape:window-y="-8"
     inkscape:window-maximized="1"
     inkscape:current-layer="layer1"
     showguides="false" />
  <defs
     id="defs2" />
  <g
     inkscape:label="Layer 1"
     inkscape:groupmode="layer"
     id="layer1">
    <g
       id="g86393"
       transform="matrix(2.9413104,0,0,2.9413104,0.84987503,-0.99835327)"
       style="fill:#ffffff;fill-opacity:1">
      <g
         id="g86368"
         transform="translate(0.250794,-0.02842398)"
         style="fill:#ffffff;fill-opacity:1">
        <path
           d="m 2.9081118,5.6112306 q 0.1566332,0 0.3090331,-0.042333 Q 3.3695447,5.526564 3.488078,5.4207308 3.6108445,5.3148975 3.6701111,5.166731 3.7293778,5.0185644 3.7293778,4.8619312 v -0.00423 H 3.3907114 v 0 q 0,0.1269999 -0.0635,0.2412998 -0.0635,0.1100666 -0.1820332,0.1608665 -0.1142999,0.046567 -0.2370664,0.046567 -0.1058333,0 -0.2074332,-0.0381 -0.097367,-0.0381 -0.1650998,-0.1227666 -0.067733,-0.084667 -0.093133,-0.1862665 -0.0254,-0.1015999 -0.0254,-0.2074331 V 3.2913659 q 0,-0.1058333 0.0254,-0.2074332 0.0254,-0.1058332 0.093133,-0.1862665 0.067733,-0.084667 0.1650998,-0.1227665 0.1015999,-0.0381 0.2074332,-0.0381 0.1227665,0 0.2370664,0.0508 0.1185333,0.046567 0.1820332,0.1608666 0.0635,0.1100666 0.0635,0.2328331 v 0.00423 h 0.3386664 v -0.00423 q 0,-0.1566332 -0.059267,-0.3047997 Q 3.6108445,2.7240997 3.488078,2.6182665 3.3695447,2.5124332 3.2171449,2.4743332 3.064745,2.4319999 2.9081118,2.4319999 q -0.1354666,0 -0.2709331,0.033867 Q 2.5059455,2.4954999 2.3916456,2.5759332 2.281579,2.6563664 2.205379,2.7748997 2.1334124,2.8891996 2.1037791,3.0246661 q -0.0254,0.1312332 -0.0254,0.2666998 v 1.4604988 q 0,0.1354665 0.0254,0.2709331 0.029633,0.1312332 0.1015999,0.2497664 0.0762,0.1142999 0.1862666,0.1947332 0.1142999,0.080433 0.2455331,0.1100666 0.1354665,0.033867 0.2709331,0.033867 z"
           style="font-size:4.23333px;line-height:1.25;font-family:Iosevka;-inkscape-font-specification:'Iosevka, Normal';letter-spacing:0px;word-spacing:0px;fill:#ffffff;fill-opacity:1;stroke-width:0.264583"
           id="path86325" />
        <path
           d="M 4.2289026,5.577364 H 4.5675689 V 4.1210985 H 5.4989015 V 5.577364 H 5.8375679 V 2.4658666 H 5.4989015 V 3.8162988 H 4.5675689 V 2.4658666 H 4.2289026 Z"
           style="font-size:4.23333px;line-height:1.25;font-family:Iosevka;-inkscape-font-specification:'Iosevka, Normal';letter-spacing:0px;word-spacing:0px;fill:#ffffff;fill-opacity:1;stroke-width:0.264583"
           id="path86327" />
      </g>
      <g
         id="g86364"
         transform="matrix(1.0694007,0,0,1.0694007,-0.04200061,-0.43202412)"
         style="fill:#ffffff;fill-opacity:1">
        <path
           d="M 2.0529878,6.2250634 V 5.9202637 q -0.093133,0 -0.1862666,-0.0127 -0.093133,-0.00847 -0.1820331,-0.0381 -0.0889,-0.0254 -0.1693333,-0.080433 -0.0762,-0.0508 -0.1185332,-0.1396999 -0.042333,-0.084667 -0.042333,-0.1777999 0,-0.097367 0.042333,-0.1862665 0.042333,-0.0889 0.084667,-0.1735665 0.042333,-0.0889 0.0635,-0.1820332 0.0254,-0.097367 0.0254,-0.1947332 0,-0.1185332 -0.033867,-0.2328331 -0.029633,-0.1143001 -0.105833,-0.2074334 -0.0762,-0.093133 -0.1777998,-0.1566332 0.1015999,-0.0635 0.1777998,-0.1566332 0.0762,-0.093133 0.1058333,-0.2074331 0.033867,-0.1185332 0.033867,-0.2370665 0,-0.097367 -0.0254,-0.1904998 -0.021167,-0.093133 -0.0635,-0.1777999 -0.042333,-0.0889 -0.084667,-0.1777998 -0.042333,-0.0889 -0.042333,-0.1862665 0,-0.093133 0.042333,-0.1777999 0.042333,-0.0889 0.1185332,-0.1396999 0.080433,-0.055033 0.169333,-0.080433 0.0889,-0.029633 0.1820331,-0.0381 0.093133,-0.0127 0.1862666,-0.0127 V 2.0510003 q -0.1439333,0 -0.2878665,0.021167 -0.1439332,0.016933 -0.2793998,0.071967 -0.1354665,0.0508 -0.2497664,0.1481666 -0.1100666,0.093133 -0.1650999,0.2328331 -0.055033,0.1354666 -0.055033,0.2793998 0,0.097367 0.021167,0.1904998 0.0254,0.093133 0.067733,0.1820332 0.046567,0.084667 0.084667,0.1735665 0.042333,0.0889 0.042333,0.1862665 0,0.1100666 -0.055033,0.2074332 -0.0508,0.097367 -0.1481665,0.1523998 -0.0973666,0.0508 -0.20743318,0.071967 -0.10583325,0.016933 -0.21589982,0.016933 v 0.3047997 q 0.11006657,0 0.21589982,0.021167 0.11006657,0.016933 0.20743318,0.071967 0.097367,0.0508 0.1481665,0.1481665 0.055033,0.097367 0.055033,0.2031998 0,0.097367 -0.042333,0.1904999 -0.0381,0.0889 -0.084667,0.1735665 -0.042333,0.084667 -0.067733,0.1820332 -0.021167,0.093133 -0.021167,0.1904998 0,0.1439332 0.055033,0.2793998 0.055033,0.1396999 0.1650999,0.2328331 0.1142999,0.097367 0.2497664,0.1481666 0.1354666,0.055033 0.2793998,0.071967 0.1439332,0.021167 0.2878665,0.021167 z"
           style="font-size:4.23333px;line-height:1.25;font-family:Iosevka;-inkscape-font-specification:'Iosevka, Normal';letter-spacing:0px;word-spacing:0px;fill:#ffffff;fill-opacity:1;stroke-width:0.264583"
           id="path86323" />
        <path
           d="m 5.8968259,6.2250634 q 0.1439332,0 0.2878664,-0.021167 0.1439332,-0.016933 0.2793998,-0.071967 0.1354666,-0.0508 0.2497665,-0.1481666 0.1142999,-0.093133 0.1650998,-0.2328331 0.055033,-0.1354666 0.055033,-0.2793998 0,-0.097367 -0.0254,-0.1904998 -0.021167,-0.097367 -0.0635,-0.1820332 -0.042333,-0.084667 -0.084667,-0.1735665 -0.042333,-0.093133 -0.042333,-0.1904999 0,-0.1058332 0.055033,-0.2031998 0.055033,-0.097367 0.1523998,-0.1481665 0.097367,-0.055033 0.2031999,-0.071967 0.1058332,-0.021167 0.2158998,-0.021167 V 3.985632 q -0.1100666,0 -0.2158998,-0.016933 Q 7.0228916,3.947532 6.925525,3.896732 6.8281585,3.8416988 6.7731252,3.7443322 6.7180919,3.6469656 6.7180919,3.536899 q 0,-0.097367 0.042333,-0.1862665 0.042333,-0.0889 0.084667,-0.1735665 0.042333,-0.0889 0.0635,-0.1820332 0.0254,-0.093133 0.0254,-0.1904998 0,-0.1439332 -0.055033,-0.2793998 Q 6.8281585,2.3854333 6.7138586,2.2923001 6.5995587,2.1949335 6.4640921,2.1441335 6.3286255,2.0891002 6.1846923,2.0721669 6.0407591,2.0510003 5.8968259,2.0510003 V 2.3558 q 0.093133,0 0.1862665,0.0127 0.093133,0.00847 0.1820332,0.0381 0.0889,0.0254 0.1650999,0.080433 0.080433,0.0508 0.1227665,0.1396999 0.042333,0.084667 0.042333,0.1777999 0,0.097367 -0.042333,0.1862665 -0.0381,0.0889 -0.084667,0.1777998 -0.042333,0.084667 -0.067733,0.1777999 -0.021167,0.093133 -0.021167,0.1904998 0,0.1185333 0.029633,0.2370665 0.033867,0.1142999 0.1100666,0.2074331 0.0762,0.093133 0.1777998,0.1566332 -0.1015999,0.0635 -0.1777998,0.1566332 -0.0762,0.093133 -0.1100666,0.2074332 -0.029633,0.1142999 -0.029633,0.2328331 0,0.097367 0.021167,0.1947332 0.0254,0.093133 0.067733,0.1820332 0.046567,0.084667 0.084667,0.1735665 0.042333,0.0889 0.042333,0.1862665 0,0.093133 -0.042333,0.1777999 -0.042333,0.0889 -0.1227665,0.1396999 -0.0762,0.055033 -0.1650999,0.080433 -0.0889,0.029633 -0.1820332,0.0381 -0.093133,0.0127 -0.1862665,0.0127 z"
           style="font-size:10.5833px;line-height:1.25;letter-spacing:-2.4948px;word-spacing:0px;fill:#ffffff;fill-opacity:1;stroke-width:0.264583"
           id="path86329" />
      </g>
    </g>
    <g
       aria-label="CAROLINE HAM"
       id="text11913"
       style="font-size:10.5833px;line-height:1.25;font-family:'Bookshelf Symbol 7';-inkscape-font-specification:'Bookshelf Symbol 7, Normal';letter-spacing:0px;word-spacing:0px;stroke-width:0.264583;fill:#ffffff;fill-opacity:1">
      <path
         d="m 2.249601,22.081372 q -0.3256477,0.194735 -0.7592992,0.194735 -0.55147386,0 -0.87057593,-0.342012 -0.31910206,-0.342012 -0.31910206,-0.936033 0,-0.602203 0.3060107,-0.93276 0.30764711,-0.332193 0.86566659,-0.332193 0.1472779,0 0.3354663,0.03109 0.1881884,0.02945 0.4189237,0.09 v 0.44347 H 2.0450484 l -0.029456,-0.248736 q -0.1325501,-0.07855 -0.2618274,-0.116186 -0.1276408,-0.03927 -0.2536452,-0.03927 -0.3796496,0 -0.60874857,0.306011 -0.22746249,0.30601 -0.22746249,0.814937 0,0.476199 0.25364523,0.783846 0.25364523,0.30601 0.64802263,0.30601 0.3714676,0 0.6840239,-0.212734 z"
         style="font-size:3.35139px;font-family:'Lucida Fax';-inkscape-font-specification:'Lucida Fax, Normal';fill:#ffffff;fill-opacity:1"
         id="path840" />
      <path
         d="m 3.0710842,21.488988 -0.2209168,0.564565 h 0.2421903 v 0.162006 h -0.579293 v -0.162006 h 0.1407322 l 0.9049407,-2.300807 h 0.1947341 l 0.9049407,2.300807 h 0.1407322 v 0.162006 H 4.0693009 V 22.053553 H 4.2902177 L 4.0676645,21.488988 Z m 0.06382,-0.162006 h 0.8689395 l -0.435288,-1.104584 z"
         style="font-size:3.35139px;font-family:'Lucida Fax';-inkscape-font-specification:'Lucida Fax, Normal';fill:#ffffff;fill-opacity:1"
         id="path842" />
      <path
         d="m 5.6075367,21.14534 v 0.908213 H 5.849727 v 0.162006 H 5.021698 V 22.053553 H 5.2638883 V 19.954025 H 5.021698 v -0.160369 h 0.859121 q 0.4091052,0 0.6120214,0.152187 0.2045526,0.150551 0.2045526,0.454925 0,0.2471 -0.1260044,0.415651 -0.1260044,0.168552 -0.3780132,0.258555 l 0.6463862,0.978579 h 0.1800063 v 0.162006 H 6.5190231 L 5.8562727,21.14534 Z m 0,-0.162006 h 0.1030945 q 0.3125564,0 0.4680164,-0.142369 0.1554599,-0.144005 0.1554599,-0.428742 0,-0.263464 -0.1407321,-0.360012 -0.1407322,-0.09819 -0.5252911,-0.09819 h -0.060548 z"
         style="font-size:3.35139px;font-family:'Lucida Fax';-inkscape-font-specification:'Lucida Fax, Normal';fill:#ffffff;fill-opacity:1"
         id="path844" />
      <path
         d="m 8.4434537,22.276107 q -0.5203819,0 -0.8214833,-0.340376 -0.299465,-0.340375 -0.299465,-0.931123 0,-0.590748 0.299465,-0.931124 0.299465,-0.340375 0.8214833,-0.340375 0.5203818,0 0.8198468,0.340375 0.299465,0.340376 0.299465,0.931124 0,0.590748 -0.299465,0.931123 -0.299465,0.340376 -0.8198468,0.340376 z m 0,-0.162006 q 0.3452848,0 0.5498374,-0.301102 0.206189,-0.302737 0.206189,-0.808391 0,-0.505654 -0.206189,-0.808392 -0.2045526,-0.302738 -0.5498374,-0.302738 -0.3452848,0 -0.5514739,0.302738 -0.206189,0.301101 -0.206189,0.808392 0,0.505654 0.206189,0.808391 0.2061891,0.301102 0.5514739,0.301102 z"
         style="font-size:3.35139px;font-family:'Lucida Fax';-inkscape-font-specification:'Lucida Fax, Normal';fill:#ffffff;fill-opacity:1"
         id="path846" />
      <path
         d="M 11.62302,22.215559 H 9.9276877 V 22.053553 H 10.169878 V 19.954025 H 9.9276877 v -0.160369 h 0.8067553 v 0.160369 h -0.220917 v 2.079891 h 0.908214 v -0.302738 h 0.20128 z"
         style="font-size:3.35139px;font-family:'Lucida Fax';-inkscape-font-specification:'Lucida Fax, Normal';fill:#ffffff;fill-opacity:1"
         id="path848" />
      <path
         d="m 12.431411,19.954025 v 2.099528 h 0.24219 v 0.162006 h -0.828028 v -0.162006 h 0.24219 v -2.099528 h -0.24219 v -0.160369 h 0.828028 v 0.160369 z"
         style="font-size:3.35139px;font-family:'Lucida Fax';-inkscape-font-specification:'Lucida Fax, Normal';fill:#ffffff;fill-opacity:1"
         id="path850" />
      <path
         d="m 14.7224,22.246651 -1.26168,-1.955523 v 1.762425 h 0.24219 v 0.162006 h -0.706934 v -0.162006 h 0.242191 v -2.099528 h -0.242191 v -0.160369 h 0.507291 l 1.282954,1.958796 v -1.798427 h -0.240554 v -0.160369 h 0.705297 v 0.160369 h -0.24219 v 2.292626 z"
         style="font-size:3.35139px;font-family:'Lucida Fax';-inkscape-font-specification:'Lucida Fax, Normal';fill:#ffffff;fill-opacity:1"
         id="path852" />
      <path
         d="m 17.219579,22.215559 h -1.665877 v -0.162006 h 0.242191 v -2.099528 h -0.242191 v -0.160369 h 1.595511 v 0.40256 H 16.96757 v -0.242191 h -0.828029 v 0.929487 h 0.585839 v -0.202916 h 0.160369 v 0.566202 H 16.72538 v -0.202916 h -0.585839 v 0.990034 h 0.898395 v -0.261827 h 0.181643 z"
         style="font-size:3.35139px;font-family:'Lucida Fax';-inkscape-font-specification:'Lucida Fax, Normal';fill:#ffffff;fill-opacity:1"
         id="path854" />
      <path
         d="m 19.126008,21.043882 v 1.009671 h 0.242191 v 0.162006 h -0.826393 v -0.162006 h 0.242191 v -2.099528 h -0.242191 v -0.160369 h 0.826393 v 0.160369 h -0.242191 v 0.929487 h 1.130767 v -0.929487 h -0.24219 v -0.160369 h 0.828029 v 0.160369 h -0.24219 v 2.099528 h 0.24219 v 0.162006 h -0.828029 v -0.162006 h 0.24219 v -1.009671 z"
         style="font-size:3.35139px;font-family:'Lucida Fax';-inkscape-font-specification:'Lucida Fax, Normal';fill:#ffffff;fill-opacity:1"
         id="path856" />
      <path
         d="m 21.603549,21.488988 -0.220916,0.564565 h 0.24219 v 0.162006 H 21.04553 v -0.162006 h 0.140732 l 0.904941,-2.300807 h 0.194734 l 0.904941,2.300807 h 0.140732 v 0.162006 h -0.729844 v -0.162006 h 0.220917 L 22.60013,21.488988 Z m 0.06382,-0.162006 h 0.868939 l -0.435288,-1.104584 z"
         style="font-size:3.35139px;font-family:'Lucida Fax';-inkscape-font-specification:'Lucida Fax, Normal';fill:#ffffff;fill-opacity:1"
         id="path858" />
      <path
         d="m 23.796354,22.053553 v -2.099528 h -0.24219 v -0.160369 h 0.641477 l 0.682387,1.777153 0.703661,-1.777153 h 0.576021 v 0.160369 h -0.242191 v 2.099528 h 0.242191 v 0.162006 h -0.806756 v -0.162006 h 0.24219 l -0.0033,-1.79679 -0.70366,1.777153 h -0.16037 l -0.706934,-1.849155 v 1.868792 h 0.261828 v 0.162006 h -0.726571 v -0.162006 z"
         style="font-size:3.35139px;font-family:'Lucida Fax';-inkscape-font-specification:'Lucida Fax, Normal';fill:#ffffff;fill-opacity:1"
         id="path860" />
    </g>
  </g>
</svg>
