<?xml version="1.0" encoding="UTF-8" standalone="no"?>
<!-- Created with Inkscape (http://www.inkscape.org/) -->

<svg
   width="100"
   height="100"
   viewBox="0 0 26.458333 26.458334"
   version="1.1"
   id="svg5"
   inkscape:version="1.1 (c68e22c387, 2021-05-23)"
   sodipodi:docname="logo.svg"
   inkscape:export-filename="C:\Users\cyham\Documents\Website\Personal-Website\Resources and Other Documents\Logo\logo.png"
   inkscape:export-xdpi="96"
   inkscape:export-ydpi="96"
   xmlns:inkscape="http://www.inkscape.org/namespaces/inkscape"
   xmlns:sodipodi="http://sodipodi.sourceforge.net/DTD/sodipodi-0.dtd"
   xmlns="http://www.w3.org/2000/svg"
   xmlns:svg="http://www.w3.org/2000/svg">
  <sodipodi:namedview
     id="namedview7"
     pagecolor="#ffffff"
     bordercolor="#666666"
     borderopacity="1.0"
     inkscape:pageshadow="2"
     inkscape:pageopacity="0.0"
     inkscape:pagecheckerboard="0"
     inkscape:document-units="mm"
     showgrid="false"
     units="px"
     inkscape:zoom="6.1433221"
     inkscape:cx="60.634945"
     inkscape:cy="46.636005"
     inkscape:window-width="1822"
     inkscape:window-height="1051"
     inkscape:window-x="2489"
     inkscape:window-y="-9"
     inkscape:window-maximized="1"
     inkscape:current-layer="layer1"
     showguides="false" />
  <defs
     id="defs2" />
  <g
     inkscape:label="Layer 1"
     inkscape:groupmode="layer"
     id="layer1">
    <g
       id="g86393"
       transform="matrix(2.9413104,0,0,2.9413104,0.84987503,-0.469186)">
      <g
         id="g86368"
         transform="translate(0.250794,-0.02842398)">
        <path
           d="m 2.9081118,5.6112306 q 0.1566332,0 0.3090331,-0.042333 Q 3.3695447,5.526564 3.488078,5.4207308 3.6108445,5.3148975 3.6701111,5.166731 3.7293778,5.0185644 3.7293778,4.8619312 v -0.00423 H 3.3907114 v 0 q 0,0.1269999 -0.0635,0.2412998 -0.0635,0.1100666 -0.1820332,0.1608665 -0.1142999,0.046567 -0.2370664,0.046567 -0.1058333,0 -0.2074332,-0.0381 -0.097367,-0.0381 -0.1650998,-0.1227666 -0.067733,-0.084667 -0.093133,-0.1862665 -0.0254,-0.1015999 -0.0254,-0.2074331 V 3.2913659 q 0,-0.1058333 0.0254,-0.2074332 0.0254,-0.1058332 0.093133,-0.1862665 0.067733,-0.084667 0.1650998,-0.1227665 0.1015999,-0.0381 0.2074332,-0.0381 0.1227665,0 0.2370664,0.0508 0.1185333,0.046567 0.1820332,0.1608666 0.0635,0.1100666 0.0635,0.2328331 v 0.00423 h 0.3386664 v -0.00423 q 0,-0.1566332 -0.059267,-0.3047997 Q 3.6108445,2.7240997 3.488078,2.6182665 3.3695447,2.5124332 3.2171449,2.4743332 3.064745,2.4319999 2.9081118,2.4319999 q -0.1354666,0 -0.2709331,0.033867 Q 2.5059455,2.4954999 2.3916456,2.5759332 2.281579,2.6563664 2.205379,2.7748997 2.1334124,2.8891996 2.1037791,3.0246661 q -0.0254,0.1312332 -0.0254,0.2666998 v 1.4604988 q 0,0.1354665 0.0254,0.2709331 0.029633,0.1312332 0.1015999,0.2497664 0.0762,0.1142999 0.1862666,0.1947332 0.1142999,0.080433 0.2455331,0.1100666 0.1354665,0.033867 0.2709331,0.033867 z"
           style="font-size:4.23333px;line-height:1.25;font-family:Iosevka;-inkscape-font-specification:'Iosevka, Normal';letter-spacing:0px;word-spacing:0px;stroke-width:0.264583"
           id="path86325" />
        <path
           d="M 4.2289026,5.577364 H 4.5675689 V 4.1210985 H 5.4989015 V 5.577364 H 5.8375679 V 2.4658666 H 5.4989015 V 3.8162988 H 4.5675689 V 2.4658666 H 4.2289026 Z"
           style="font-size:4.23333px;line-height:1.25;font-family:Iosevka;-inkscape-font-specification:'Iosevka, Normal';letter-spacing:0px;word-spacing:0px;stroke-width:0.264583"
           id="path86327" />
      </g>
      <g
         id="g86364"
         transform="matrix(1.0694007,0,0,1.0694007,-0.04200061,-0.43202412)">
        <path
           d="M 2.0529878,6.2250634 V 5.9202637 q -0.093133,0 -0.1862666,-0.0127 -0.093133,-0.00847 -0.1820331,-0.0381 -0.0889,-0.0254 -0.1693333,-0.080433 -0.0762,-0.0508 -0.1185332,-0.1396999 -0.042333,-0.084667 -0.042333,-0.1777999 0,-0.097367 0.042333,-0.1862665 0.042333,-0.0889 0.084667,-0.1735665 0.042333,-0.0889 0.0635,-0.1820332 0.0254,-0.097367 0.0254,-0.1947332 0,-0.1185332 -0.033867,-0.2328331 -0.029633,-0.1143001 -0.105833,-0.2074334 -0.0762,-0.093133 -0.1777998,-0.1566332 0.1015999,-0.0635 0.1777998,-0.1566332 0.0762,-0.093133 0.1058333,-0.2074331 0.033867,-0.1185332 0.033867,-0.2370665 0,-0.097367 -0.0254,-0.1904998 -0.021167,-0.093133 -0.0635,-0.1777999 -0.042333,-0.0889 -0.084667,-0.1777998 -0.042333,-0.0889 -0.042333,-0.1862665 0,-0.093133 0.042333,-0.1777999 0.042333,-0.0889 0.1185332,-0.1396999 0.080433,-0.055033 0.169333,-0.080433 0.0889,-0.029633 0.1820331,-0.0381 0.093133,-0.0127 0.1862666,-0.0127 V 2.0510003 q -0.1439333,0 -0.2878665,0.021167 -0.1439332,0.016933 -0.2793998,0.071967 -0.1354665,0.0508 -0.2497664,0.1481666 -0.1100666,0.093133 -0.1650999,0.2328331 -0.055033,0.1354666 -0.055033,0.2793998 0,0.097367 0.021167,0.1904998 0.0254,0.093133 0.067733,0.1820332 0.046567,0.084667 0.084667,0.1735665 0.042333,0.0889 0.042333,0.1862665 0,0.1100666 -0.055033,0.2074332 -0.0508,0.097367 -0.1481665,0.1523998 -0.0973666,0.0508 -0.20743318,0.071967 -0.10583325,0.016933 -0.21589982,0.016933 v 0.3047997 q 0.11006657,0 0.21589982,0.021167 0.11006657,0.016933 0.20743318,0.071967 0.097367,0.0508 0.1481665,0.1481665 0.055033,0.097367 0.055033,0.2031998 0,0.097367 -0.042333,0.1904999 -0.0381,0.0889 -0.084667,0.1735665 -0.042333,0.084667 -0.067733,0.1820332 -0.021167,0.093133 -0.021167,0.1904998 0,0.1439332 0.055033,0.2793998 0.055033,0.1396999 0.1650999,0.2328331 0.1142999,0.097367 0.2497664,0.1481666 0.1354666,0.055033 0.2793998,0.071967 0.1439332,0.021167 0.2878665,0.021167 z"
           style="font-size:4.23333px;line-height:1.25;font-family:Iosevka;-inkscape-font-specification:'Iosevka, Normal';letter-spacing:0px;word-spacing:0px;stroke-width:0.264583"
           id="path86323" />
        <path
           d="m 5.8968259,6.2250634 q 0.1439332,0 0.2878664,-0.021167 0.1439332,-0.016933 0.2793998,-0.071967 0.1354666,-0.0508 0.2497665,-0.1481666 0.1142999,-0.093133 0.1650998,-0.2328331 0.055033,-0.1354666 0.055033,-0.2793998 0,-0.097367 -0.0254,-0.1904998 -0.021167,-0.097367 -0.0635,-0.1820332 -0.042333,-0.084667 -0.084667,-0.1735665 -0.042333,-0.093133 -0.042333,-0.1904999 0,-0.1058332 0.055033,-0.2031998 0.055033,-0.097367 0.1523998,-0.1481665 0.097367,-0.055033 0.2031999,-0.071967 0.1058332,-0.021167 0.2158998,-0.021167 V 3.985632 q -0.1100666,0 -0.2158998,-0.016933 Q 7.0228916,3.947532 6.925525,3.896732 6.8281585,3.8416988 6.7731252,3.7443322 6.7180919,3.6469656 6.7180919,3.536899 q 0,-0.097367 0.042333,-0.1862665 0.042333,-0.0889 0.084667,-0.1735665 0.042333,-0.0889 0.0635,-0.1820332 0.0254,-0.093133 0.0254,-0.1904998 0,-0.1439332 -0.055033,-0.2793998 Q 6.8281585,2.3854333 6.7138586,2.2923001 6.5995587,2.1949335 6.4640921,2.1441335 6.3286255,2.0891002 6.1846923,2.0721669 6.0407591,2.0510003 5.8968259,2.0510003 V 2.3558 q 0.093133,0 0.1862665,0.0127 0.093133,0.00847 0.1820332,0.0381 0.0889,0.0254 0.1650999,0.080433 0.080433,0.0508 0.1227665,0.1396999 0.042333,0.084667 0.042333,0.1777999 0,0.097367 -0.042333,0.1862665 -0.0381,0.0889 -0.084667,0.1777998 -0.042333,0.084667 -0.067733,0.1777999 -0.021167,0.093133 -0.021167,0.1904998 0,0.1185333 0.029633,0.2370665 0.033867,0.1142999 0.1100666,0.2074331 0.0762,0.093133 0.1777998,0.1566332 -0.1015999,0.0635 -0.1777998,0.1566332 -0.0762,0.093133 -0.1100666,0.2074332 -0.029633,0.1142999 -0.029633,0.2328331 0,0.097367 0.021167,0.1947332 0.0254,0.093133 0.067733,0.1820332 0.046567,0.084667 0.084667,0.1735665 0.042333,0.0889 0.042333,0.1862665 0,0.093133 -0.042333,0.1777999 -0.042333,0.0889 -0.1227665,0.1396999 -0.0762,0.055033 -0.1650999,0.080433 -0.0889,0.029633 -0.1820332,0.0381 -0.093133,0.0127 -0.1862665,0.0127 z"
           style="font-size:10.5833px;line-height:1.25;letter-spacing:-2.4948px;word-spacing:0px;stroke-width:0.264583"
           id="path86329" />
      </g>
    </g>
    <text
       xml:space="preserve"
       style="font-style:normal;font-variant:normal;font-weight:normal;font-stretch:normal;font-size:10.5833px;line-height:1.25;font-family:'Bookshelf Symbol 7';-inkscape-font-specification:'Bookshelf Symbol 7, Normal';font-variant-ligatures:normal;font-variant-caps:normal;font-variant-numeric:normal;font-variant-east-asian:normal;letter-spacing:0px;word-spacing:0px;fill:#000000;fill-opacity:1;stroke:none;stroke-width:0.264583"
       x="0.099344045"
       y="21.686392"
       id="text11913"><tspan
         sodipodi:role="line"
         id="tspan11911"
         style="font-style:normal;font-variant:normal;font-weight:normal;font-stretch:normal;font-size:3.35139px;font-family:'Lucida Fax';-inkscape-font-specification:'Lucida Fax, Normal';font-variant-ligatures:normal;font-variant-caps:normal;font-variant-numeric:normal;font-variant-east-asian:normal;stroke-width:0.264583"
         x="0.099344045"
         y="21.686392">CAROLINE HAM</tspan></text>
  </g>
</svg>
