<svg xmlns="http://www.w3.org/2000/svg" viewBox="0 0 320 320">
  <g id="Layer_6" data-name="Layer 6">
    <g>
      <path d="M275.81,41.38V190.23h0v7.45c7.54-7.39,16.95-17.28,23.84-26.74-6.89,9.46-16.3,19.35-23.84,26.74v80.94H301V159.09h0V41.38Z"/>
      <rect x="195.71" y="144.35" width="88.3" height="23.24"/>
      <g id="Front_Letter" data-name="Front Letter">
        <path d="M60.72,276.25a51.42,51.42,0,0,1-18.26-8.34,52.46,52.46,0,0,1-13.85-14.63,55,55,0,0,1-7.55-18.57,98.22,98.22,0,0,1-2-20V106.13a98.19,98.19,0,0,1,2-20,55,55,0,0,1,7.55-18.57A52.63,52.63,0,0,1,42.46,52.94,51.6,51.6,0,0,1,60.72,44.6a86.12,86.12,0,0,1,20-2.36,89.86,89.86,0,0,1,23,3A49.78,49.78,0,0,1,124,56.09a48.92,48.92,0,0,1,13.38,19A61.68,61.68,0,0,1,141.77,98v.31H116.59V98a35,35,0,0,0-4.73-17.47,27,27,0,0,0-13.37-12A45.79,45.79,0,0,0,80.7,64.9a42.29,42.29,0,0,0-15.26,2.83A29.42,29.42,0,0,0,53,76.7a34.56,34.56,0,0,0-6.93,13.85,65.31,65.31,0,0,0-1.89,15.58V214.72a63.22,63.22,0,0,0,1.89,15.42A35.82,35.82,0,0,0,53,244a28.87,28.87,0,0,0,12.43,9.13A42.29,42.29,0,0,0,80.7,256a45.77,45.77,0,0,0,17.79-3.61,26.94,26.94,0,0,0,13.37-12,35.49,35.49,0,0,0,4.73-17.78h25.18v.31a60.5,60.5,0,0,1-4.41,22.67A49.11,49.11,0,0,1,124,264.45a51.22,51.22,0,0,1-20.3,11,85.4,85.4,0,0,1-43,.78Z"/>
        <polygon points="181.38 41.38 181.38 278.62 206.56 278.62 206.56 185.94 206.56 167.58 206.56 144.35 206.56 141.82 206.56 41.38 181.38 41.38"/>
      </g>
    </g>
  </g>
</svg>
