<svg xmlns="http://www.w3.org/2000/svg" viewBox="0 0 160 160"><defs><style>.cls-1,.cls-2,.cls-3{fill:none;}.cls-1,.cls-2,.cls-6{stroke:#999;stroke-linecap:round;}.cls-1{stroke-linejoin:bevel;}.cls-1,.cls-2{stroke-width:2px;}.cls-2,.cls-6{stroke-linejoin:round;}.cls-4,.cls-6{fill:#999;}.cls-5{fill:#d6d6d6;}.cls-6{stroke-width:0.25px;}.cls-7{fill:#bfbfbf;}</style></defs><g id="Text_and_Keyboard" data-name="Text and Keyboard"><path d="M40.79,100.6a19.47,19.47,0,0,1-6.93-3.16,19.83,19.83,0,0,1-5.25-5.55,20.82,20.82,0,0,1-2.87-7A37.14,37.14,0,0,1,25,77.26V36.06a37.28,37.28,0,0,1,.77-7.58,20.77,20.77,0,0,1,2.87-7,20,20,0,0,1,5.25-5.56,19.64,19.64,0,0,1,6.93-3.16,32.39,32.39,0,0,1,7.58-.9A33.81,33.81,0,0,1,57.08,13a18.88,18.88,0,0,1,7.71,4.12,18.46,18.46,0,0,1,5.07,7.22A23.35,23.35,0,0,1,71.53,33v.12H62V33a13.31,13.31,0,0,0-1.79-6.63,10.27,10.27,0,0,0-5.07-4.54,17.44,17.44,0,0,0-6.75-1.37,16,16,0,0,0-5.79,1.08,11.12,11.12,0,0,0-4.72,3.4,13.15,13.15,0,0,0-2.63,5.25,25.21,25.21,0,0,0-.71,5.91v41.2a24.4,24.4,0,0,0,.71,5.85,13.69,13.69,0,0,0,2.63,5.25,11,11,0,0,0,4.72,3.47,16.19,16.19,0,0,0,5.79,1.07,17.26,17.26,0,0,0,6.75-1.37A10.22,10.22,0,0,0,60.19,87,13.52,13.52,0,0,0,62,80.25h9.55v.11A22.81,22.81,0,0,1,69.86,89a18.51,18.51,0,0,1-5.07,7.17,19.5,19.5,0,0,1-7.71,4.18,32.42,32.42,0,0,1-16.29.29Z"/><path d="M122.39,70.8v30.7h9.55V59.93A83.61,83.61,0,0,1,122.39,70.8Z"/><path d="M122.39,11.5V68c3.69-3.75,7.69-8.27,9.55-11.81V11.5Z"/><rect x="96.12" y="50.56" width="26.27" height="8.82"/></g><g id="Wire"><path class="cls-1" d="M86,116.5s-10.21-17-10.5-24.5C75,80,86,79,82.45,66c-1-3.74-3.45-9-1-14C85.92,42.9,93,45,94,45.58a10,10,0,0,1,4,3.92c1.17,2.43,2.06,11,2.56,10.49"/><polygon points="86.56 11.5 86.56 101.5 96.12 101.5 96.12 66.34 96.12 59.38 96.12 50.56 96.12 49.6 96.12 11.5 86.56 11.5"/><path class="cls-2" d="M108.17,49.59c1.16,2.44,2,11,2.55,10.49"/><path class="cls-2" d="M113.25,49.59c1.17,2.44,2.06,11,2.56,10.49"/><path class="cls-2" d="M118.34,49.59c1.16,2.44,2,11,2.55,10.49"/><path class="cls-2" d="M103.08,49.59c1.17,2.44,2.06,11,2.56,10.49"/><path class="cls-3" d="M133,53.36a4,4,0,0,0-.76-3.42l-.26-.25v6.47A8.91,8.91,0,0,0,133,53.36Z"/><path class="cls-4" d="M133.67,48.59a5.81,5.81,0,0,0-1.73-1.27v2.37l.26.25a4,4,0,0,1,.76,3.42,8.91,8.91,0,0,1-1,2.8v3.77a16.21,16.21,0,0,0,3-6.29A5.93,5.93,0,0,0,133.67,48.59Z"/><path class="cls-4" d="M116.29,73.75A1,1,0,0,0,117,75.5a1,1,0,0,0,.66-.25c.23-.2,2.22-2,4.78-4.45V68C120,70.38,117.75,72.47,116.29,73.75Z"/><path class="cls-4" d="M122.39,68V70.8a83.61,83.61,0,0,0,9.55-10.87V56.16C130.08,59.7,126.08,64.22,122.39,68Z"/><rect class="cls-5" x="110.76" y="76.32" width="4.98" height="4" transform="translate(-20.73 110.08) rotate(-48)"/><rect class="cls-6" x="113.28" y="73.82" width="4.24" height="4.26" transform="translate(-18.26 110.89) rotate(-48)"/><rect x="111.94" y="77.35" width="1" height="0.75" transform="translate(143.98 210.72) rotate(-138)"/><rect x="113.43" y="78.7" width="1" height="0.75" transform="translate(145.69 214.07) rotate(-138)"/></g><g id="Keys"><rect class="cls-7" x="16" y="104" width="128" height="41" rx="3.15"/><rect class="cls-4" x="130.91" y="106.22" width="9.81" height="6.54" rx="1.09"/><rect class="cls-4" x="19.28" y="106.22" width="6.54" height="6.54" rx="1.09"/><rect class="cls-4" x="27.87" y="106.22" width="6.54" height="6.54" rx="1.09"/><rect class="cls-4" x="36.46" y="106.22" width="6.54" height="6.54" rx="1.09"/><rect class="cls-4" x="45.04" y="106.22" width="6.54" height="6.54" rx="1.09"/><rect class="cls-4" x="53.63" y="106.22" width="6.54" height="6.54" rx="1.09"/><rect class="cls-4" x="62.22" y="106.22" width="6.54" height="6.54" rx="1.09"/><rect class="cls-4" x="70.8" y="106.22" width="6.54" height="6.54" rx="1.09"/><rect class="cls-4" x="79.39" y="106.22" width="6.54" height="6.54" rx="1.09"/><rect class="cls-4" x="87.98" y="106.22" width="6.54" height="6.54" rx="1.09"/><rect class="cls-4" x="96.56" y="106.22" width="6.54" height="6.54" rx="1.09"/><rect class="cls-4" x="105.15" y="106.22" width="6.54" height="6.54" rx="1.09"/><rect class="cls-4" x="113.74" y="106.22" width="6.54" height="6.54" rx="1.09"/><rect class="cls-4" x="122.32" y="106.22" width="6.54" height="6.54" rx="1.09"/><rect class="cls-4" x="19.28" y="113.63" width="8.72" height="6.54" rx="1.09"/><rect class="cls-4" x="133.09" y="113.63" width="7.63" height="6.54" rx="1.09"/><rect class="cls-4" x="30.05" y="113.63" width="6.54" height="6.54" rx="1.09"/><rect class="cls-4" x="38.64" y="113.63" width="6.54" height="6.54" rx="1.09"/><rect class="cls-4" x="47.22" y="113.63" width="6.54" height="6.54" rx="1.09"/><rect class="cls-4" x="55.81" y="113.63" width="6.54" height="6.54" rx="1.09"/><rect class="cls-4" x="64.4" y="113.63" width="6.54" height="6.54" rx="1.09"/><rect class="cls-4" x="72.98" y="113.63" width="6.54" height="6.54" rx="1.09"/><rect class="cls-4" x="81.57" y="113.63" width="6.54" height="6.54" rx="1.09"/><rect class="cls-4" x="90.16" y="113.63" width="6.54" height="6.54" rx="1.09"/><rect class="cls-4" x="98.74" y="113.63" width="6.54" height="6.54" rx="1.09"/><rect class="cls-4" x="107.33" y="113.63" width="6.54" height="6.54" rx="1.09"/><rect class="cls-4" x="115.92" y="113.63" width="6.54" height="6.54" rx="1.09"/><rect class="cls-4" x="124.5" y="113.63" width="6.54" height="6.54" rx="1.09"/><rect class="cls-4" x="19.28" y="121.04" width="13.07" height="6.54" rx="1.09"/><rect class="cls-4" x="34.31" y="121.04" width="6.54" height="6.54" rx="1.09"/><rect class="cls-4" x="42.79" y="121.04" width="6.54" height="6.54" rx="1.09"/><rect class="cls-4" x="51.28" y="121.04" width="6.54" height="6.54" rx="1.09"/><rect class="cls-4" x="59.76" y="121.04" width="6.54" height="6.54" rx="1.09"/><rect class="cls-4" x="68.25" y="121.04" width="6.54" height="6.54" rx="1.09"/><rect class="cls-4" x="76.73" y="121.04" width="6.54" height="6.54" rx="1.09"/><rect class="cls-4" x="85.22" y="121.04" width="6.54" height="6.54" rx="1.09"/><rect class="cls-4" x="93.7" y="121.04" width="6.54" height="6.54" rx="1.09"/><rect class="cls-4" x="102.19" y="121.04" width="6.54" height="6.54" rx="1.09"/><rect class="cls-4" x="110.67" y="121.04" width="6.54" height="6.54" rx="1.09"/><rect class="cls-4" x="119.16" y="121.04" width="6.54" height="6.54" rx="1.09"/><rect class="cls-4" x="127.64" y="121.04" width="13.07" height="6.54" rx="1.09"/><rect class="cls-4" x="19.28" y="128.46" width="19.61" height="6.54" rx="1.09"/><rect class="cls-4" x="40.43" y="128.46" width="6.54" height="6.54" rx="1.09"/><rect class="cls-4" x="48.49" y="128.46" width="6.54" height="6.54" rx="1.09"/><rect class="cls-4" x="56.56" y="128.46" width="6.54" height="6.54" rx="1.09"/><rect class="cls-4" x="64.63" y="128.46" width="6.54" height="6.54" rx="1.09"/><rect class="cls-4" x="72.7" y="128.46" width="6.54" height="6.54" rx="1.09"/><rect class="cls-4" x="80.77" y="128.46" width="6.54" height="6.54" rx="1.09"/><rect class="cls-4" x="88.83" y="128.46" width="6.54" height="6.54" rx="1.09"/><rect class="cls-4" x="96.9" y="128.46" width="6.54" height="6.54" rx="1.09"/><rect class="cls-4" x="104.97" y="128.46" width="6.54" height="6.54" rx="1.09"/><rect class="cls-4" x="113.04" y="128.46" width="6.54" height="6.54" rx="1.09"/><rect class="cls-4" x="121.1" y="128.46" width="19.61" height="6.54" rx="1.09"/><rect class="cls-4" x="19.28" y="135.87" width="7.63" height="6.54" rx="1.09"/><rect class="cls-4" x="107.13" y="135.87" width="7.63" height="6.54" rx="1.09"/><rect class="cls-4" x="27.94" y="135.87" width="6.54" height="6.54" rx="1.09"/><rect class="cls-4" x="35.5" y="135.87" width="6.54" height="6.54" rx="1.09"/><rect class="cls-4" x="43.06" y="135.87" width="6.54" height="6.54" rx="1.09"/><rect class="cls-4" x="99.57" y="135.87" width="6.54" height="6.54" rx="1.09"/><rect class="cls-4" x="50.63" y="135.87" width="47.91" height="6.54" rx="1.09"/><rect class="cls-4" x="124.44" y="135.87" width="7.63" height="6.54" rx="1.09"/><rect class="cls-4" x="115.78" y="135.87" width="7.63" height="6.54" rx="1.54"/><rect class="cls-4" x="133.09" y="135.87" width="7.63" height="6.54" rx="1.54"/></g></svg>