<svg xmlns="http://www.w3.org/2000/svg" viewBox="0 0 320 320">
  <defs>
    <style>
      .cls-1, .cls-3, .cls-5, .cls-7 {
        fill: #999;
      }

      .cls-1, .cls-3, .cls-5 {
        stroke: #999;
      }

      .cls-1, .cls-3 {
        stroke-miterlimit: 10;
      }

      .cls-1, .cls-5 {
        stroke-width: 0.5px;
      }

      .cls-2 {
        fill: #fff;
      }

      .cls-3 {
        stroke-width: 0.25px;
      }

      .cls-4 {
        fill: #d6d6d6;
      }

      .cls-5 {
        stroke-linecap: round;
        stroke-linejoin: round;
      }

      .cls-6 {
        fill: #bfbfbf;
      }
    </style>
  </defs>
  <g id="Layer_7" data-name="Layer 7">
    <path id="Wire_Around_H" data-name="Wire Around H" class="cls-1" d="M267.34,100.68a11.41,11.41,0,0,0-3.46-2.53v4.74a6.08,6.08,0,0,1,.52.5c1.43,1.58,2,3.88,1.52,6.83a18.11,18.11,0,0,1-2,5.59v7.56c3.19-4.59,5.49-9,6-12.59C270.48,106.59,269.63,103.19,267.34,100.68Z"/>
    <rect class="cls-2" x="184" y="104.62" width="67" height="17.63"/>
    <g>
      <path class="cls-2" d="M244.78,145.09V206.5h19.1V123.37C258.6,131,250.88,139.11,244.78,145.09Z"/>
      <path class="cls-2" d="M244.78,26.5V139.43c7.38-7.48,15.38-16.54,19.1-23.62V26.5Z"/>
    </g>
    <path id="Long_Wire" data-name="Long Wire" class="cls-3" d="M171.91,238.5a2,2,0,0,1-1.72-1c-.84-1.4-20.7-34.59-21.28-49.95-.44-11.57,4.27-18.5,8.42-24.62,5-7.32,9.27-13.64,5.65-26.93-.33-1.18-.73-2.46-1.15-3.81-2.31-7.36-5.18-16.51-.72-25.6,3.75-7.64,8.8-12.48,15-14.38a18.08,18.08,0,0,1,12.87.68,22.23,22.23,0,0,1,8.71,8.71c1.34,2.81,2.41,8.73,3.35,14,.43,2.38.95,5.26,1.29,6.41l.08.08a2,2,0,0,1,0,2.82,2.12,2.12,0,0,1-2.13.54c-1.62-.51-1.86-1.83-3.17-9.14-.81-4.48-1.92-10.61-3-12.92s-3.95-5.17-7.1-7a14.44,14.44,0,0,0-9.7-.32c-5.12,1.56-9.36,5.7-12.6,12.31-3.75,7.66-1.15,16,1,22.64.43,1.39.84,2.7,1.18,3.95,4.12,15.07-1.12,22.78-6.19,30.24-4.18,6.15-8.12,12-7.74,22.21.54,14.35,20.52,47.71,20.72,48.05a2,2,0,0,1-.68,2.74A2,2,0,0,1,171.91,238.5Z"/>
    <g id="Front_Letter" data-name="Front Letter">
      <path class="cls-2" d="M81.57,204.71a39.16,39.16,0,0,1-13.85-6.33,39.74,39.74,0,0,1-10.51-11.11,41.88,41.88,0,0,1-5.73-14.09A74.36,74.36,0,0,1,49.93,158V75.63a74.53,74.53,0,0,1,1.55-15.17,42.05,42.05,0,0,1,5.73-14.09,40,40,0,0,1,10.51-11.1,39.16,39.16,0,0,1,13.85-6.33,65.52,65.52,0,0,1,15.17-1.79,68.13,68.13,0,0,1,17.43,2.27,37.57,37.57,0,0,1,15.4,8.24A37.1,37.1,0,0,1,139.73,52.1a47.06,47.06,0,0,1,3.34,17.32v.24H124v-.24a26.52,26.52,0,0,0-3.58-13.26,20.5,20.5,0,0,0-10.15-9.07,34.7,34.7,0,0,0-13.49-2.75,32.13,32.13,0,0,0-11.58,2.15,22.35,22.35,0,0,0-9.44,6.81,26.05,26.05,0,0,0-5.25,10.51A49.28,49.28,0,0,0,69,75.63V158a47.82,47.82,0,0,0,1.44,11.7,27.11,27.11,0,0,0,5.25,10.51,22,22,0,0,0,9.44,6.93,32.12,32.12,0,0,0,11.58,2.14,34.69,34.69,0,0,0,13.49-2.74,20.47,20.47,0,0,0,10.15-9.08A26.9,26.9,0,0,0,124,164h19.11v.24a46,46,0,0,1-3.34,17.19,37.16,37.16,0,0,1-10.16,14.33,38.79,38.79,0,0,1-15.4,8.36,64.95,64.95,0,0,1-32.6.6Z"/>
      <polygon class="cls-2" points="173.13 26.5 173.13 206.5 192.23 206.5 192.23 136.18 192.23 122.25 192.23 104.62 192.23 102.7 192.23 26.5 173.13 26.5"/>
    </g>
    <g id="Wire_Front" data-name="Wire Front">
      <path class="cls-1" d="M244.77,139.43v5.66c6.11-6,13.83-14.12,19.11-21.72v-7.56C260.16,122.89,252.16,132,244.77,139.43Z"/>
      <rect class="cls-4" x="221.53" y="156.14" width="9.96" height="8" transform="translate(-44.06 221.31) rotate(-48)"/>
      <rect class="cls-5" x="226.56" y="151.14" width="8.47" height="8.53" transform="translate(-39.12 222.93) rotate(-48)"/>
      <g>
        <rect x="223.87" y="158.2" width="2" height="1.5" transform="translate(285.62 427.54) rotate(-138)"/>
        <rect x="226.86" y="160.9" width="2" height="1.5" transform="translate(289.03 434.24) rotate(-138)"/>
      </g>
      <path class="cls-3" d="M221.35,125.71a2.17,2.17,0,0,1-.62-.1c-1.62-.51-1.86-1.82-3.18-9.14-.8-4.47-1.91-10.6-3-12.92a2,2,0,1,1,3.61-1.73c1.34,2.8,2.41,8.72,3.35,14,.43,2.37.95,5.25,1.28,6.4l.09.08a2,2,0,0,1,0,2.83A2.13,2.13,0,0,1,221.35,125.71ZM220,122.25Z"/>
      <path class="cls-3" d="M231.52,125.71a2.17,2.17,0,0,1-.62-.1c-1.62-.51-1.86-1.82-3.18-9.14-.8-4.47-1.91-10.6-3-12.92a2,2,0,0,1,3.61-1.73c1.34,2.8,2.41,8.72,3.35,13.94.43,2.38,1,5.26,1.29,6.41l.08.08a2,2,0,0,1,0,2.83A2.13,2.13,0,0,1,231.52,125.71Zm-1.32-3.46Z"/>
      <path class="cls-3" d="M241.69,125.71a2.17,2.17,0,0,1-.62-.1c-1.62-.51-1.86-1.82-3.17-9.13-.81-4.48-1.92-10.61-3-12.93a2,2,0,1,1,3.61-1.73c1.34,2.81,2.41,8.72,3.35,14,.43,2.37.95,5.25,1.29,6.4a.6.6,0,0,0,.08.08,2,2,0,0,1,0,2.83A2.13,2.13,0,0,1,241.69,125.71Zm-1.32-3.46Z"/>
      <path class="cls-3" d="M211.18,125.71a2.17,2.17,0,0,1-.62-.1c-1.62-.51-1.86-1.82-3.18-9.14-.8-4.47-1.91-10.6-3-12.92a2,2,0,1,1,3.61-1.73c1.34,2.8,2.41,8.72,3.35,13.94.43,2.38,1,5.26,1.28,6.41l.09.08a2,2,0,0,1,0,2.83A2.13,2.13,0,0,1,211.18,125.71Zm-1.32-3.46Z"/>
      <path class="cls-1" d="M232.59,151a2,2,0,0,0,1.31,3.5,2,2,0,0,0,1.32-.5c.46-.39,4.44-3.9,9.55-8.91v-5.66C240,144.27,235.5,148.44,232.59,151Z"/>
    </g>
    <rect id="Keyboard" class="cls-6" x="32" y="211.5" width="256" height="82" rx="3.15"/>
    <g id="Keys-2" data-name="Keys">
      <g>
        <rect class="cls-7" x="261.82" y="215.94" width="19.61" height="13.07" rx="2.18"/>
        <rect class="cls-7" x="38.57" y="215.94" width="13.07" height="13.07" rx="2.18"/>
        <rect class="cls-7" x="55.74" y="215.94" width="13.07" height="13.07" rx="2.18"/>
        <rect class="cls-7" x="72.92" y="215.94" width="13.07" height="13.07" rx="2.18"/>
        <rect class="cls-7" x="90.09" y="215.94" width="13.07" height="13.07" rx="2.18"/>
        <rect class="cls-7" x="107.26" y="215.94" width="13.07" height="13.07" rx="2.18"/>
        <rect class="cls-7" x="124.43" y="215.94" width="13.07" height="13.07" rx="2.18"/>
        <rect class="cls-7" x="141.61" y="215.94" width="13.07" height="13.07" rx="2.18"/>
        <rect class="cls-7" x="158.78" y="215.94" width="13.07" height="13.07" rx="2.18"/>
        <rect class="cls-7" x="175.95" y="215.94" width="13.07" height="13.07" rx="2.18"/>
        <rect class="cls-7" x="193.13" y="215.94" width="13.07" height="13.07" rx="2.18"/>
        <rect class="cls-7" x="210.3" y="215.94" width="13.07" height="13.07" rx="2.18"/>
        <rect class="cls-7" x="227.47" y="215.94" width="13.07" height="13.07" rx="2.18"/>
        <rect class="cls-7" x="244.65" y="215.94" width="13.07" height="13.07" rx="2.18"/>
      </g>
      <g>
        <rect class="cls-7" x="38.57" y="230.77" width="17.43" height="13.07" rx="2.18"/>
        <rect class="cls-7" x="266.18" y="230.77" width="15.25" height="13.07" rx="2.18"/>
        <rect class="cls-7" x="60.1" y="230.77" width="13.07" height="13.07" rx="2.18"/>
        <rect class="cls-7" x="77.27" y="230.77" width="13.07" height="13.07" rx="2.18"/>
        <rect class="cls-7" x="94.45" y="230.77" width="13.07" height="13.07" rx="2.18"/>
        <rect class="cls-7" x="111.62" y="230.77" width="13.07" height="13.07" rx="2.18"/>
        <rect class="cls-7" x="128.79" y="230.77" width="13.07" height="13.07" rx="2.18"/>
        <rect class="cls-7" x="145.97" y="230.77" width="13.07" height="13.07" rx="2.18"/>
        <rect class="cls-7" x="163.14" y="230.77" width="13.07" height="13.07" rx="2.18"/>
        <rect class="cls-7" x="180.31" y="230.77" width="13.07" height="13.07" rx="2.18"/>
        <rect class="cls-7" x="197.49" y="230.77" width="13.07" height="13.07" rx="2.18"/>
        <rect class="cls-7" x="214.66" y="230.77" width="13.07" height="13.07" rx="2.18"/>
        <rect class="cls-7" x="231.83" y="230.77" width="13.07" height="13.07" rx="2.18"/>
        <rect class="cls-7" x="249.01" y="230.77" width="13.07" height="13.07" rx="2.18"/>
      </g>
      <g>
        <rect class="cls-7" x="38.57" y="245.59" width="26.15" height="13.07" rx="2.18"/>
        <rect class="cls-7" x="68.61" y="245.59" width="13.07" height="13.07" rx="2.18"/>
        <rect class="cls-7" x="85.58" y="245.59" width="13.07" height="13.07" rx="2.18"/>
        <rect class="cls-7" x="102.55" y="245.59" width="13.07" height="13.07" rx="2.18"/>
        <rect class="cls-7" x="119.52" y="245.59" width="13.07" height="13.07" rx="2.18"/>
        <rect class="cls-7" x="136.49" y="245.59" width="13.07" height="13.07" rx="2.18"/>
        <rect class="cls-7" x="153.46" y="245.59" width="13.07" height="13.07" rx="2.18"/>
        <rect class="cls-7" x="170.43" y="245.59" width="13.07" height="13.07" rx="2.18"/>
        <rect class="cls-7" x="187.4" y="245.59" width="13.07" height="13.07" rx="2.18"/>
        <rect class="cls-7" x="204.37" y="245.59" width="13.07" height="13.07" rx="2.18"/>
        <rect class="cls-7" x="221.34" y="245.59" width="13.07" height="13.07" rx="2.18"/>
        <rect class="cls-7" x="238.31" y="245.59" width="13.07" height="13.07" rx="2.18"/>
        <rect class="cls-7" x="255.28" y="245.59" width="26.15" height="13.07" rx="2.18"/>
      </g>
      <g>
        <rect class="cls-7" x="38.57" y="260.41" width="39.22" height="13.07" rx="2.18"/>
        <rect class="cls-7" x="80.85" y="260.41" width="13.07" height="13.07" rx="2.18"/>
        <rect class="cls-7" x="96.99" y="260.41" width="13.07" height="13.07" rx="2.18"/>
        <rect class="cls-7" x="113.12" y="260.41" width="13.07" height="13.07" rx="2.18"/>
        <rect class="cls-7" x="129.26" y="260.41" width="13.07" height="13.07" rx="2.18"/>
        <rect class="cls-7" x="145.4" y="260.41" width="13.07" height="13.07" rx="2.18"/>
        <rect class="cls-7" x="161.53" y="260.41" width="13.07" height="13.07" rx="2.18"/>
        <rect class="cls-7" x="177.67" y="260.41" width="13.07" height="13.07" rx="2.18"/>
        <rect class="cls-7" x="193.8" y="260.41" width="13.07" height="13.07" rx="2.18"/>
        <rect class="cls-7" x="209.94" y="260.41" width="13.07" height="13.07" rx="2.18"/>
        <rect class="cls-7" x="226.07" y="260.41" width="13.07" height="13.07" rx="2.18"/>
        <rect class="cls-7" x="242.21" y="260.41" width="39.22" height="13.07" rx="2.18"/>
      </g>
      <g>
        <rect class="cls-7" x="38.57" y="275.23" width="15.25" height="13.07" rx="2.18"/>
        <rect class="cls-7" x="214.26" y="275.23" width="15.25" height="13.07" rx="2.18"/>
        <rect class="cls-7" x="55.87" y="275.23" width="13.07" height="13.07" rx="2.18"/>
        <rect class="cls-7" x="71" y="275.23" width="13.07" height="13.07" rx="2.18"/>
        <rect class="cls-7" x="86.13" y="275.23" width="13.07" height="13.07" rx="2.18"/>
        <rect class="cls-7" x="199.13" y="275.23" width="13.07" height="13.07" rx="2.18"/>
        <rect class="cls-7" x="101.26" y="275.23" width="95.83" height="13.07" rx="2.18"/>
        <rect class="cls-7" x="248.87" y="275.23" width="15.25" height="13.07" rx="2.18"/>
        <rect class="cls-7" x="231.57" y="275.23" width="15.25" height="13.07" rx="3.08"/>
        <rect class="cls-7" x="266.18" y="275.23" width="15.25" height="13.07" rx="3.08"/>
      </g>
    </g>
  </g>
</svg>
