<svg xmlns="http://www.w3.org/2000/svg" viewBox="0 0 1846 320"><g id="_15" data-name="15"><path d="M106.18,236a33.41,33.41,0,0,1-11.9-5.43,34.3,34.3,0,0,1-9-9.54,35.74,35.74,0,0,1-4.93-12.1,64.07,64.07,0,0,1-1.33-13V125.13a64.24,64.24,0,0,1,1.33-13A35.77,35.77,0,0,1,85.26,100a34.3,34.3,0,0,1,9-9.54A33.58,33.58,0,0,1,106.18,85a55.85,55.85,0,0,1,13-1.54,58.42,58.42,0,0,1,15,2,32.47,32.47,0,0,1,13.23,7.07,31.86,31.86,0,0,1,8.72,12.41A40.26,40.26,0,0,1,159,119.79V120H143v-.21a22.81,22.81,0,0,0-3.07-11.38,17.5,17.5,0,0,0-8.68-7.79,29.65,29.65,0,0,0-11.55-2.36,27.41,27.41,0,0,0-7.8,1.13,20.83,20.83,0,0,0-10.81,7.37A22.35,22.35,0,0,0,97.23,115,42.52,42.52,0,0,0,96,125.13v70.74a41.28,41.28,0,0,0,1.23,10,23.27,23.27,0,0,0,4.49,9,18.75,18.75,0,0,0,8.07,5.95,27.43,27.43,0,0,0,9.91,1.85,29.65,29.65,0,0,0,11.55-2.36,17.5,17.5,0,0,0,8.68-7.79A23.19,23.19,0,0,0,143,201h16v.2A39.49,39.49,0,0,1,156.13,216a31.85,31.85,0,0,1-8.72,12.3,33.31,33.31,0,0,1-13.23,7.18,55.78,55.78,0,0,1-28,.51Z"/><path d="M202,235.69a23.52,23.52,0,0,1-10.4-6.87,28.26,28.26,0,0,1-6.2-11.18A45.37,45.37,0,0,1,183.6,205a36,36,0,0,1,2.2-12.41,24.47,24.47,0,0,1,7-10.26,35.1,35.1,0,0,1,10.7-6.46,53.75,53.75,0,0,1,12-3.08,93.19,93.19,0,0,1,12.3-.82H246V161.8a23.54,23.54,0,0,0-2.7-11,15.37,15.37,0,0,0-8.2-7.4,29.63,29.63,0,0,0-11.1-2.2,36.31,36.31,0,0,0-10.3,1.5,16.06,16.06,0,0,0-8.4,5.8A15.24,15.24,0,0,0,202,158H186a31.57,31.57,0,0,1,4.13-15.61,25.32,25.32,0,0,1,5.9-7.09,33.07,33.07,0,0,1,14.17-7,63.83,63.83,0,0,1,13.8-1.5,62.49,62.49,0,0,1,11.6,1.1,34.79,34.79,0,0,1,11,4.1,29.6,29.6,0,0,1,8.8,7.7,29.11,29.11,0,0,1,5.1,10.4,45.78,45.78,0,0,1,1.5,11.7V236H246V218.77a30.33,30.33,0,0,1-7.6,10.46,29.83,29.83,0,0,1-11.3,6.46,42.77,42.77,0,0,1-12.7,1.95A39.85,39.85,0,0,1,202,235.69Zm27.52-13.77a23.7,23.7,0,0,0,9-4.64,18.47,18.47,0,0,0,5.77-8.13,28.78,28.78,0,0,0,1.75-9.79V187H227.25a72.94,72.94,0,0,0-7.72.41A40.67,40.67,0,0,0,212,189a29.12,29.12,0,0,0-7,3.19,14.19,14.19,0,0,0-6.28,8.9,16.42,16.42,0,0,0-.52,4.19,18.59,18.59,0,0,0,2.88,9.88,14.82,14.82,0,0,0,8,6.39,32.58,32.58,0,0,0,10.5,1.75A37.81,37.81,0,0,0,229.52,221.92Z"/><path d="M300,127h16v25.07a55.45,55.45,0,0,1,3.39-9.66,39.91,39.91,0,0,1,5.55-8.83,21.37,21.37,0,0,1,8.22-6.17,25.16,25.16,0,0,1,10-2,28.88,28.88,0,0,1,11.2,2.26,19.05,19.05,0,0,1,8.73,7.19,28.07,28.07,0,0,1,4.32,10.68,65.93,65.93,0,0,1,1,11.51H352a35.83,35.83,0,0,0-.51-6.06,16.06,16.06,0,0,0-2.16-5.65,9.77,9.77,0,0,0-4.52-3.91,15,15,0,0,0-6-1.23,18.82,18.82,0,0,0-9.35,2.47,19.14,19.14,0,0,0-7.09,6.78,34.93,34.93,0,0,0-4,9.14,59.54,59.54,0,0,0-1.85,9.76,95.91,95.91,0,0,0-.51,9.86V236H300Z"/><path d="M415.54,236.5a34.11,34.11,0,0,1-12.11-5.69,35.19,35.19,0,0,1-9.11-9.84,36.93,36.93,0,0,1-5-12.42A67.31,67.31,0,0,1,388,195.09V168.17a67.24,67.24,0,0,1,1.35-13.46,38.17,38.17,0,0,1,5-12.53,34,34,0,0,1,23.11-15.94A59,59,0,0,1,429,125.1a58.33,58.33,0,0,1,11.59,1.15,33.89,33.89,0,0,1,23.09,15.93,38.39,38.39,0,0,1,5,12.53A67.24,67.24,0,0,1,470,168.17v26.92a67.31,67.31,0,0,1-1.35,13.46,37.14,37.14,0,0,1-5,12.42,35.19,35.19,0,0,1-9.11,9.84,34.19,34.19,0,0,1-12.11,5.69,55.4,55.4,0,0,1-26.92,0Zm24.34-15.11a19.44,19.44,0,0,0,8.31-6.23,24.42,24.42,0,0,0,4.56-9.55A45.11,45.11,0,0,0,454,195.13v-27a44.84,44.84,0,0,0-1.25-10.59,24.58,24.58,0,0,0-4.56-9.44,19.52,19.52,0,0,0-8.31-6.23,27.83,27.83,0,0,0-10.38-2,28.13,28.13,0,0,0-10.28,2,19.4,19.4,0,0,0-8.41,6.23,24.58,24.58,0,0,0-4.56,9.44A44.84,44.84,0,0,0,405,168.13v27a45.11,45.11,0,0,0,1.25,10.48,24.42,24.42,0,0,0,4.56,9.55,19.32,19.32,0,0,0,8.41,6.23,28.13,28.13,0,0,0,10.28,2A27.83,27.83,0,0,0,439.88,221.39Z"/><path d="M496,222h29V100H499V85h43V222h26v14H496Z"/><path d="M599,222h29V142H602V127h43v94l26,1v14H599Zm29.35-115.56a9.36,9.36,0,0,1-4.74-4.64,15.21,15.21,0,0,1,0-13.38,9.88,9.88,0,0,1,4.74-4.74,15.23,15.23,0,0,1,13.39,0,9.46,9.46,0,0,1,4.63,4.74,16.26,16.26,0,0,1,0,13.38,9,9,0,0,1-4.63,4.64,16.28,16.28,0,0,1-13.39,0Z"/><path d="M699,127h16v18.3a35.16,35.16,0,0,1,6.51-10.79,24.33,24.33,0,0,1,10.33-7,36.65,36.65,0,0,1,12.3-2.16,35.6,35.6,0,0,1,12,2.06,25.17,25.17,0,0,1,10,6.58,36.17,36.17,0,0,1,6.72,10.18,43.87,43.87,0,0,1,3.3,11.72,90.86,90.86,0,0,1,.83,12.24V236H761V168a51.44,51.44,0,0,0-1-10.2,25.57,25.57,0,0,0-4-9.37,17.94,17.94,0,0,0-7.67-6.39,24.44,24.44,0,0,0-19.64,0,17.89,17.89,0,0,0-7.67,6.39,25.24,25.24,0,0,0-4,9.37,51.44,51.44,0,0,0-1,10.2v68H699Z"/><path d="M827,235.45A32.52,32.52,0,0,1,815.2,230a34.63,34.63,0,0,1-9-9.71A36.67,36.67,0,0,1,801.3,208a66.34,66.34,0,0,1-1.3-13.15V168.19a66.62,66.62,0,0,1,1.35-13.39,37.81,37.81,0,0,1,5-12.46,34.57,34.57,0,0,1,11.14-11.27,35,35,0,0,1,11.95-4.58,59.64,59.64,0,0,1,23.21,0,33.93,33.93,0,0,1,23.06,15.85,38,38,0,0,1,5,12.46A66.62,66.62,0,0,1,882,168.19V189H816v5.87a44.53,44.53,0,0,0,1.2,10.32,23.24,23.24,0,0,0,4.5,9.21,19.26,19.26,0,0,0,8.2,6.07,27.45,27.45,0,0,0,10.1,1.92A38.52,38.52,0,0,0,850.3,221a17.55,17.55,0,0,0,8.7-5.57,14.89,14.89,0,0,0,3.8-9.41h16a33.75,33.75,0,0,1-3.6,13.26,28.5,28.5,0,0,1-9,10.52,34.27,34.27,0,0,1-12.6,5.67A62.44,62.44,0,0,1,840,237,56.27,56.27,0,0,1,827,235.45ZM866,174v-6a44.06,44.06,0,0,0-1.25-10.51,24.22,24.22,0,0,0-4.56-9.37,19.41,19.41,0,0,0-8.31-6.18,28,28,0,0,0-10.38-2,28.32,28.32,0,0,0-10.28,2,19.29,19.29,0,0,0-8.41,6.18,24.22,24.22,0,0,0-4.56,9.37A44.06,44.06,0,0,0,817,168v6Z"/><path d="M958,84h17v65h45V84h16V235h-16V164H975v71H958Z"/><path d="M1079,234.69a23.51,23.51,0,0,1-10.4-7,28.8,28.8,0,0,1-6.2-11.36,46.73,46.73,0,0,1-1.8-12.81,37.06,37.06,0,0,1,2.2-12.6,24.93,24.93,0,0,1,7-10.42,35.2,35.2,0,0,1,10.7-6.56,52.82,52.82,0,0,1,12-3.13,91.52,91.52,0,0,1,12.3-.83H1123V159.8a23.54,23.54,0,0,0-2.7-11,15.37,15.37,0,0,0-8.2-7.4,29.63,29.63,0,0,0-11.1-2.2,36.31,36.31,0,0,0-10.3,1.5,16.06,16.06,0,0,0-8.4,5.8,15.24,15.24,0,0,0-3.3,9.5h-16a31.57,31.57,0,0,1,4.13-15.61,25.32,25.32,0,0,1,5.9-7.09,33.07,33.07,0,0,1,14.17-7,63.83,63.83,0,0,1,13.8-1.5,62.49,62.49,0,0,1,11.6,1.1,34.79,34.79,0,0,1,11,4.1,29.6,29.6,0,0,1,8.8,7.7,29.11,29.11,0,0,1,5.1,10.4,45.78,45.78,0,0,1,1.5,11.7V235h-16V217.5a30.86,30.86,0,0,1-7.6,10.63,29.8,29.8,0,0,1-11.3,6.56,42.17,42.17,0,0,1-12.7,2A39.3,39.3,0,0,1,1079,234.69Zm27.52-14.77a23.7,23.7,0,0,0,9-4.64,18.47,18.47,0,0,0,5.77-8.13,28.78,28.78,0,0,0,1.75-9.79V185h-18.75a72.94,72.94,0,0,0-7.72.41A40.67,40.67,0,0,0,1089,187a29.12,29.12,0,0,0-7,3.19,14.19,14.19,0,0,0-6.28,8.9,16.42,16.42,0,0,0-.52,4.19,18.59,18.59,0,0,0,2.88,9.88,14.82,14.82,0,0,0,8,6.39,32.58,32.58,0,0,0,10.5,1.75A37.81,37.81,0,0,0,1106.52,219.92Z"/><path d="M1161,126h17v8a25.21,25.21,0,0,1,4-5.47,11.49,11.49,0,0,1,3.24-2.42,17.49,17.49,0,0,1,7.76-1.78,16.79,16.79,0,0,1,7.61,1.86,14.61,14.61,0,0,1,5.85,5.14,29.15,29.15,0,0,1,3.4,7.19,26.1,26.1,0,0,1,3.18-7.09,14.62,14.62,0,0,1,5.76-5.24,16.49,16.49,0,0,1,7.7-1.86,16,16,0,0,1,8.63,2.58,16.87,16.87,0,0,1,6.27,6.89,30.24,30.24,0,0,1,2.88,8.94,60.89,60.89,0,0,1,.72,9.36V235h-17V152a27.67,27.67,0,0,0-.61-5.77,10,10,0,0,0-2.77-5,7.05,7.05,0,0,0-5.22-2.17,6.82,6.82,0,0,0-5,2.17,10,10,0,0,0-2.77,5A27.67,27.67,0,0,0,1211,152v83h-16V152a26.45,26.45,0,0,0-.65-5.77,9.79,9.79,0,0,0-2.93-5,7.45,7.45,0,0,0-5.31-2.17,7.81,7.81,0,0,0-5.42,2.17,9.47,9.47,0,0,0-3,5A26.45,26.45,0,0,0,1177,152v83h-16Z"/><rect x="32" y="27" width="15" height="267"/></g></svg>