<svg xmlns="http://www.w3.org/2000/svg" viewBox="0 0 1846 320"><g id="_3" data-name="3"><rect x="32" y="27" width="15" height="267"/><path d="M106.18,236a33.41,33.41,0,0,1-11.9-5.43,34.3,34.3,0,0,1-9-9.54,35.74,35.74,0,0,1-4.93-12.1,64.07,64.07,0,0,1-1.33-13V125.13a64.24,64.24,0,0,1,1.33-13A35.77,35.77,0,0,1,85.26,100a34.3,34.3,0,0,1,9-9.54A33.58,33.58,0,0,1,106.18,85a55.85,55.85,0,0,1,13-1.54,58.42,58.42,0,0,1,15,2,32.47,32.47,0,0,1,13.23,7.07,31.86,31.86,0,0,1,8.72,12.41A40.26,40.26,0,0,1,159,119.79V120H143v-.21a22.81,22.81,0,0,0-3.07-11.38,17.5,17.5,0,0,0-8.68-7.79,29.65,29.65,0,0,0-11.55-2.36,27.41,27.41,0,0,0-7.8,1.13,20.83,20.83,0,0,0-10.81,7.37A22.35,22.35,0,0,0,97.23,115,42.52,42.52,0,0,0,96,125.13v70.74a41.28,41.28,0,0,0,1.23,10,23.27,23.27,0,0,0,4.49,9,18.75,18.75,0,0,0,8.07,5.95,27.43,27.43,0,0,0,9.91,1.85,29.65,29.65,0,0,0,11.55-2.36,17.5,17.5,0,0,0,8.68-7.79A23.19,23.19,0,0,0,143,201h16v.2A39.49,39.49,0,0,1,156.13,216a31.85,31.85,0,0,1-8.72,12.3,33.31,33.31,0,0,1-13.23,7.18,55.78,55.78,0,0,1-28,.51Z"/><rect x="163" y="27" width="15" height="267"/></g></svg>