<svg xmlns="http://www.w3.org/2000/svg" viewBox="0 0 1846 320"><g id="_4" data-name="4"><rect x="32" y="27" width="15" height="267"/><path d="M106.18,236a33.41,33.41,0,0,1-11.9-5.43,34.3,34.3,0,0,1-9-9.54,35.74,35.74,0,0,1-4.93-12.1,64.07,64.07,0,0,1-1.33-13V125.13a64.24,64.24,0,0,1,1.33-13A35.77,35.77,0,0,1,85.26,100a34.3,34.3,0,0,1,9-9.54A33.58,33.58,0,0,1,106.18,85a55.85,55.85,0,0,1,13-1.54,58.42,58.42,0,0,1,15,2,32.47,32.47,0,0,1,13.23,7.07,31.86,31.86,0,0,1,8.72,12.41A40.26,40.26,0,0,1,159,119.79V120H143v-.21a22.81,22.81,0,0,0-3.07-11.38,17.5,17.5,0,0,0-8.68-7.79,29.65,29.65,0,0,0-11.55-2.36,27.41,27.41,0,0,0-7.8,1.13,20.83,20.83,0,0,0-10.81,7.37A22.35,22.35,0,0,0,97.23,115,42.52,42.52,0,0,0,96,125.13v70.74a41.28,41.28,0,0,0,1.23,10,23.27,23.27,0,0,0,4.49,9,18.75,18.75,0,0,0,8.07,5.95,27.43,27.43,0,0,0,9.91,1.85,29.65,29.65,0,0,0,11.55-2.36,17.5,17.5,0,0,0,8.68-7.79A23.19,23.19,0,0,0,143,201h16v.2A39.49,39.49,0,0,1,156.13,216a31.85,31.85,0,0,1-8.72,12.3,33.31,33.31,0,0,1-13.23,7.18,55.78,55.78,0,0,1-28,.51Z"/><path d="M202,235.69a23.52,23.52,0,0,1-10.4-6.87,28.26,28.26,0,0,1-6.2-11.18A45.37,45.37,0,0,1,183.6,205a36,36,0,0,1,2.2-12.41,24.47,24.47,0,0,1,7-10.26,35.1,35.1,0,0,1,10.7-6.46,53.75,53.75,0,0,1,12-3.08,93.19,93.19,0,0,1,12.3-.82H246V161.8a23.54,23.54,0,0,0-2.7-11,15.37,15.37,0,0,0-8.2-7.4,29.63,29.63,0,0,0-11.1-2.2,36.31,36.31,0,0,0-10.3,1.5,16.06,16.06,0,0,0-8.4,5.8A15.24,15.24,0,0,0,202,158H186a31.57,31.57,0,0,1,4.13-15.61,25.32,25.32,0,0,1,5.9-7.09,33.07,33.07,0,0,1,14.17-7,63.83,63.83,0,0,1,13.8-1.5,62.49,62.49,0,0,1,11.6,1.1,34.79,34.79,0,0,1,11,4.1,29.6,29.6,0,0,1,8.8,7.7,29.11,29.11,0,0,1,5.1,10.4,45.78,45.78,0,0,1,1.5,11.7V236H246V218.77a30.33,30.33,0,0,1-7.6,10.46,29.83,29.83,0,0,1-11.3,6.46,42.77,42.77,0,0,1-12.7,1.95A39.85,39.85,0,0,1,202,235.69Zm27.52-13.77a23.7,23.7,0,0,0,9-4.64,18.47,18.47,0,0,0,5.77-8.13,28.78,28.78,0,0,0,1.75-9.79V187H227.25a72.94,72.94,0,0,0-7.72.41A40.67,40.67,0,0,0,212,189a29.12,29.12,0,0,0-7,3.19,14.19,14.19,0,0,0-6.28,8.9,16.42,16.42,0,0,0-.52,4.19,18.59,18.59,0,0,0,2.88,9.88,14.82,14.82,0,0,0,8,6.39,32.58,32.58,0,0,0,10.5,1.75A37.81,37.81,0,0,0,229.52,221.92Z"/><rect x="273" y="27" width="15" height="267"/></g></svg>