<svg xmlns="http://www.w3.org/2000/svg" viewBox="0 0 1846 320"><g id="_17" data-name="17"><rect x="32" y="27" width="15" height="267"/><path d="M106.5,235.69a33.2,33.2,0,0,1-13.2-7.05,31.13,31.13,0,0,1-8.8-12.42A41,41,0,0,1,81.6,201h16a22.8,22.8,0,0,0,3.2,11.7,17.67,17.67,0,0,0,8.9,7.77,31.23,31.23,0,0,0,11.7,2.27A28,28,0,0,0,133.5,220a18.61,18.61,0,0,0,8.9-8.91,28.51,28.51,0,0,0,3-12.73,25.86,25.86,0,0,0-4.2-14.08,31.81,31.81,0,0,0-10.6-10.46q-6.41-3.83-13-7.14a110.51,110.51,0,0,1-12.7-7.46,53.87,53.87,0,0,1-11-9.94,44.7,44.7,0,0,1-9.31-18.44,30.22,30.22,0,0,1-.67-3.76,47.2,47.2,0,0,1,2.28-21,37.06,37.06,0,0,1,8-13.36,29.79,29.79,0,0,1,12.7-8.18A48.57,48.57,0,0,1,122,82.14a51.9,51.9,0,0,1,14.4,2.07,30.67,30.67,0,0,1,12.7,7.25,32.25,32.25,0,0,1,8.2,12.42,42.45,42.45,0,0,1,2.7,14.91V119H144v-.21a24.51,24.51,0,0,0-2.8-11.28,17,17,0,0,0-8.2-8,26.17,26.17,0,0,0-11-2.48,27,27,0,0,0-9,1.55,17.32,17.32,0,0,0-7.5,5.18A22.63,22.63,0,0,0,101,112a31.33,31.33,0,0,0-1.4,9.32,26.62,26.62,0,0,0,4.1,14.29A30.87,30.87,0,0,0,114.2,146q6.39,3.84,13,7a96.11,96.11,0,0,1,12.7,7.46,58.88,58.88,0,0,1,11,9.94,42.29,42.29,0,0,1,7.6,12.94,41.8,41.8,0,0,1,2.7,14.7,47.85,47.85,0,0,1-2.7,15.84A34.36,34.36,0,0,1,150,227.4a32,32,0,0,1-13.3,8,52.32,52.32,0,0,1-15.3,2.28A57,57,0,0,1,106.5,235.69Z"/><path d="M210.54,236a34.13,34.13,0,0,1-12.11-5.7,35.29,35.29,0,0,1-9.11-9.83,37,37,0,0,1-5-12.43A67.17,67.17,0,0,1,183,194.57V167.65a67.14,67.14,0,0,1,1.35-13.45,38.09,38.09,0,0,1,5-12.53,33.9,33.9,0,0,1,23.11-15.94A58.21,58.21,0,0,1,224,124.58a59.09,59.09,0,0,1,11.59,1.15,34,34,0,0,1,23.09,15.94,38.3,38.3,0,0,1,5,12.53A67.14,67.14,0,0,1,265,167.65v26.92A67.17,67.17,0,0,1,263.65,208a37.19,37.19,0,0,1-5,12.43,35.29,35.29,0,0,1-9.11,9.83,34.22,34.22,0,0,1-12.11,5.7,55.4,55.4,0,0,1-26.92,0Zm23.34-15.11a19.52,19.52,0,0,0,8.31-6.23,24.49,24.49,0,0,0,4.56-9.55A45.2,45.2,0,0,0,248,194.61v-27A44.72,44.72,0,0,0,246.75,157a24.55,24.55,0,0,0-4.56-9.45,19.6,19.6,0,0,0-8.31-6.23,28,28,0,0,0-10.38-2,28.34,28.34,0,0,0-10.28,2,19.48,19.48,0,0,0-8.41,6.23,24.55,24.55,0,0,0-4.56,9.45A44.72,44.72,0,0,0,199,167.62v27a45.2,45.2,0,0,0,1.25,10.49,24.49,24.49,0,0,0,4.56,9.55,19.4,19.4,0,0,0,8.41,6.23,28.34,28.34,0,0,0,10.28,2A28,28,0,0,0,233.88,220.88Z"/><rect x="268" y="27" width="15" height="267"/></g></svg>