<svg xmlns="http://www.w3.org/2000/svg" viewBox="0 0 2085 320"><defs><style>.cls-1,.cls-2,.cls-3{fill:none;}.cls-1,.cls-2,.cls-6{stroke:#999;stroke-linecap:round;}.cls-1{stroke-linejoin:bevel;}.cls-1,.cls-2{stroke-width:4px;}.cls-2,.cls-6{stroke-linejoin:round;}.cls-4,.cls-6{fill:#999;}.cls-5{fill:#d6d6d6;}.cls-6{stroke-width:0.5px;}.cls-7{fill:#bfbfbf;}</style></defs><g id="Layer_4" data-name="Layer 4"><rect x="320" y="26.5" width="15" height="267"/><path d="M81.57,204.21a39.16,39.16,0,0,1-13.85-6.33,39.74,39.74,0,0,1-10.51-11.11,41.88,41.88,0,0,1-5.73-14.09,74.36,74.36,0,0,1-1.55-15.16V75.13A74.53,74.53,0,0,1,51.48,60a42.05,42.05,0,0,1,5.73-14.09,40,40,0,0,1,10.51-11.1,39.16,39.16,0,0,1,13.85-6.33,65.52,65.52,0,0,1,15.17-1.79,68.13,68.13,0,0,1,17.43,2.27,37.57,37.57,0,0,1,15.4,8.24A37.1,37.1,0,0,1,139.73,51.6a47.06,47.06,0,0,1,3.34,17.32v.24H124v-.24a26.52,26.52,0,0,0-3.58-13.26,20.5,20.5,0,0,0-10.15-9.07,34.7,34.7,0,0,0-13.49-2.75A32.13,32.13,0,0,0,85.16,46a22.35,22.35,0,0,0-9.44,6.81,26.05,26.05,0,0,0-5.25,10.51A49.28,49.28,0,0,0,69,75.13v82.39a47.82,47.82,0,0,0,1.44,11.7,27.11,27.11,0,0,0,5.25,10.51,22,22,0,0,0,9.44,6.93,32.12,32.12,0,0,0,11.58,2.14,34.69,34.69,0,0,0,13.49-2.74A20.47,20.47,0,0,0,120.38,177,26.9,26.9,0,0,0,124,163.49h19.11v.24a46,46,0,0,1-3.34,17.19,37.16,37.16,0,0,1-10.16,14.33,38.79,38.79,0,0,1-15.4,8.36,64.95,64.95,0,0,1-32.6.6Z"/><path d="M244.78,144.59V206h19.1V122.87C258.6,130.47,250.88,138.61,244.78,144.59Z"/><path d="M244.78,26V138.93c7.38-7.48,15.38-16.54,19.1-23.62V26Z"/><rect x="192.23" y="104.12" width="52.54" height="17.63"/><path class="cls-1" d="M171.9,236s-20.43-34-21-49c-.9-24,21.1-26,14-52-2-7.48-6.9-18-2-28C171.84,88.79,186,93,188,94.15c3.39,2,6.51,4.95,7.9,7.85,2.34,4.87,4.11,22,5.11,21"/><polygon points="173.13 26 173.13 206 192.23 206 192.23 135.68 192.23 121.75 192.23 104.12 192.23 102.2 192.23 26 173.13 26"/><path class="cls-2" d="M216.33,102.18c2.34,4.87,4.11,22,5.11,21"/><path class="cls-2" d="M226.5,102.18c2.34,4.87,4.11,22,5.11,21"/><path class="cls-2" d="M236.67,102.18c2.34,4.87,4.11,22,5.11,21"/><path class="cls-2" d="M206.16,102.18c2.34,4.87,4.11,22,5.11,21"/><path class="cls-3" d="M265.92,109.72c.43-3-.09-5.25-1.52-6.83a6.08,6.08,0,0,0-.52-.5v12.92A18.11,18.11,0,0,0,265.92,109.72Z"/><path class="cls-4" d="M267.34,100.18a11.41,11.41,0,0,0-3.46-2.53v4.74a6.08,6.08,0,0,1,.52.5c1.43,1.58,2,3.88,1.52,6.83a18.11,18.11,0,0,1-2,5.59v7.56c3.19-4.59,5.49-9,6-12.59C270.48,106.09,269.63,102.69,267.34,100.18Z"/><path class="cls-4" d="M232.59,150.5a2,2,0,0,0,1.31,3.5,2,2,0,0,0,1.32-.5c.46-.39,4.44-3.9,9.55-8.91v-5.66C240,143.77,235.5,147.94,232.59,150.5Z"/><path class="cls-4" d="M244.77,138.93v5.66c6.11-6,13.83-14.12,19.11-21.72v-7.56C260.16,122.39,252.16,131.45,244.77,138.93Z"/><rect class="cls-5" x="221.53" y="155.64" width="9.96" height="8" transform="translate(-43.69 221.15) rotate(-48)"/><rect class="cls-6" x="226.56" y="150.64" width="8.47" height="8.53" transform="translate(-38.75 222.77) rotate(-48)"/><rect x="223.87" y="157.7" width="2" height="1.5" transform="translate(285.96 426.67) rotate(-138)"/><rect x="226.86" y="160.4" width="2" height="1.5" transform="translate(289.37 433.37) rotate(-138)"/><rect class="cls-7" x="32" y="211" width="256" height="82" rx="3.15"/><rect class="cls-4" x="261.82" y="215.44" width="19.61" height="13.07" rx="2.18"/><rect class="cls-4" x="38.57" y="215.44" width="13.07" height="13.07" rx="2.18"/><rect class="cls-4" x="55.74" y="215.44" width="13.07" height="13.07" rx="2.18"/><rect class="cls-4" x="72.92" y="215.44" width="13.07" height="13.07" rx="2.18"/><rect class="cls-4" x="90.09" y="215.44" width="13.07" height="13.07" rx="2.18"/><rect class="cls-4" x="107.26" y="215.44" width="13.07" height="13.07" rx="2.18"/><rect class="cls-4" x="124.43" y="215.44" width="13.07" height="13.07" rx="2.18"/><rect class="cls-4" x="141.61" y="215.44" width="13.07" height="13.07" rx="2.18"/><rect class="cls-4" x="158.78" y="215.44" width="13.07" height="13.07" rx="2.18"/><rect class="cls-4" x="175.95" y="215.44" width="13.07" height="13.07" rx="2.18"/><rect class="cls-4" x="193.13" y="215.44" width="13.07" height="13.07" rx="2.18"/><rect class="cls-4" x="210.3" y="215.44" width="13.07" height="13.07" rx="2.18"/><rect class="cls-4" x="227.47" y="215.44" width="13.07" height="13.07" rx="2.18"/><rect class="cls-4" x="244.65" y="215.44" width="13.07" height="13.07" rx="2.18"/><rect class="cls-4" x="38.57" y="230.27" width="17.43" height="13.07" rx="2.18"/><rect class="cls-4" x="266.18" y="230.27" width="15.25" height="13.07" rx="2.18"/><rect class="cls-4" x="60.1" y="230.27" width="13.07" height="13.07" rx="2.18"/><rect class="cls-4" x="77.27" y="230.27" width="13.07" height="13.07" rx="2.18"/><rect class="cls-4" x="94.45" y="230.27" width="13.07" height="13.07" rx="2.18"/><rect class="cls-4" x="111.62" y="230.27" width="13.07" height="13.07" rx="2.18"/><rect class="cls-4" x="128.79" y="230.27" width="13.07" height="13.07" rx="2.18"/><rect class="cls-4" x="145.97" y="230.27" width="13.07" height="13.07" rx="2.18"/><rect class="cls-4" x="163.14" y="230.27" width="13.07" height="13.07" rx="2.18"/><rect class="cls-4" x="180.31" y="230.27" width="13.07" height="13.07" rx="2.18"/><rect class="cls-4" x="197.49" y="230.27" width="13.07" height="13.07" rx="2.18"/><rect class="cls-4" x="214.66" y="230.27" width="13.07" height="13.07" rx="2.18"/><rect class="cls-4" x="231.83" y="230.27" width="13.07" height="13.07" rx="2.18"/><rect class="cls-4" x="249.01" y="230.27" width="13.07" height="13.07" rx="2.18"/><rect class="cls-4" x="38.57" y="245.09" width="26.15" height="13.07" rx="2.18"/><rect class="cls-4" x="68.61" y="245.09" width="13.07" height="13.07" rx="2.18"/><rect class="cls-4" x="85.58" y="245.09" width="13.07" height="13.07" rx="2.18"/><rect class="cls-4" x="102.55" y="245.09" width="13.07" height="13.07" rx="2.18"/><rect class="cls-4" x="119.52" y="245.09" width="13.07" height="13.07" rx="2.18"/><rect class="cls-4" x="136.49" y="245.09" width="13.07" height="13.07" rx="2.18"/><rect class="cls-4" x="153.46" y="245.09" width="13.07" height="13.07" rx="2.18"/><rect class="cls-4" x="170.43" y="245.09" width="13.07" height="13.07" rx="2.18"/><rect class="cls-4" x="187.4" y="245.09" width="13.07" height="13.07" rx="2.18"/><rect class="cls-4" x="204.37" y="245.09" width="13.07" height="13.07" rx="2.18"/><rect class="cls-4" x="221.34" y="245.09" width="13.07" height="13.07" rx="2.18"/><rect class="cls-4" x="238.31" y="245.09" width="13.07" height="13.07" rx="2.18"/><rect class="cls-4" x="255.28" y="245.09" width="26.15" height="13.07" rx="2.18"/><rect class="cls-4" x="38.57" y="259.91" width="39.22" height="13.07" rx="2.18"/><rect class="cls-4" x="80.85" y="259.91" width="13.07" height="13.07" rx="2.18"/><rect class="cls-4" x="96.99" y="259.91" width="13.07" height="13.07" rx="2.18"/><rect class="cls-4" x="113.12" y="259.91" width="13.07" height="13.07" rx="2.18"/><rect class="cls-4" x="129.26" y="259.91" width="13.07" height="13.07" rx="2.18"/><rect class="cls-4" x="145.4" y="259.91" width="13.07" height="13.07" rx="2.18"/><rect class="cls-4" x="161.53" y="259.91" width="13.07" height="13.07" rx="2.18"/><rect class="cls-4" x="177.67" y="259.91" width="13.07" height="13.07" rx="2.18"/><rect class="cls-4" x="193.8" y="259.91" width="13.07" height="13.07" rx="2.18"/><rect class="cls-4" x="209.94" y="259.91" width="13.07" height="13.07" rx="2.18"/><rect class="cls-4" x="226.07" y="259.91" width="13.07" height="13.07" rx="2.18"/><rect class="cls-4" x="242.21" y="259.91" width="39.22" height="13.07" rx="2.18"/><rect class="cls-4" x="38.57" y="274.73" width="15.25" height="13.07" rx="2.18"/><rect class="cls-4" x="214.26" y="274.73" width="15.25" height="13.07" rx="2.18"/><rect class="cls-4" x="55.87" y="274.73" width="13.07" height="13.07" rx="2.18"/><rect class="cls-4" x="71" y="274.73" width="13.07" height="13.07" rx="2.18"/><rect class="cls-4" x="86.13" y="274.73" width="13.07" height="13.07" rx="2.18"/><rect class="cls-4" x="199.13" y="274.73" width="13.07" height="13.07" rx="2.18"/><rect class="cls-4" x="101.26" y="274.73" width="95.83" height="13.07" rx="2.18"/><rect class="cls-4" x="248.87" y="274.73" width="15.25" height="13.07" rx="2.18"/><rect class="cls-4" x="231.57" y="274.73" width="15.25" height="13.07" rx="3.08"/><rect class="cls-4" x="266.18" y="274.73" width="15.25" height="13.07" rx="3.08"/><path d="M391,235.4a34.79,34.79,0,0,1-13.6-7A31.06,31.06,0,0,1,368.3,216a39.68,39.68,0,0,1-3-15.14h16.48a22.13,22.13,0,0,0,3.3,11.64,18,18,0,0,0,9.17,7.72,33,33,0,0,0,12.05,2.27,29.72,29.72,0,0,0,12.46-2.78,18.83,18.83,0,0,0,9.17-8.86A27.59,27.59,0,0,0,431,198.21a25.16,25.16,0,0,0-4.33-14,32.19,32.19,0,0,0-10.92-10.4q-6.58-3.81-13.39-7.11a115.16,115.16,0,0,1-13.08-7.41A55.37,55.37,0,0,1,378,149.39a43.7,43.7,0,0,1-7.83-12.87,40.17,40.17,0,0,1-2.78-14.73,45.31,45.31,0,0,1,2.68-15.35,36.62,36.62,0,0,1,8.24-13.29A30.83,30.83,0,0,1,391.37,85a51.43,51.43,0,0,1,15.55-2.37,55.39,55.39,0,0,1,14.84,2.06,32.25,32.25,0,0,1,21.52,19.57,40.76,40.76,0,0,1,2.78,14.83v.2H429.58v-.2a23.81,23.81,0,0,0-2.88-11.23,17.23,17.23,0,0,0-8.45-7.93,27.57,27.57,0,0,0-11.33-2.47A28.52,28.52,0,0,0,397.65,99a17.88,17.88,0,0,0-7.72,5.15,22.44,22.44,0,0,0-4.64,8.14,30.42,30.42,0,0,0-1.44,9.27,25.81,25.81,0,0,0,4.23,14.21,31.19,31.19,0,0,0,10.81,10.41q6.58,3.81,13.39,7a98.31,98.31,0,0,1,13.08,7.42,59.3,59.3,0,0,1,11.33,9.89,41.48,41.48,0,0,1,7.83,12.87A40.44,40.44,0,0,1,447.3,198a46.33,46.33,0,0,1-2.78,15.76,34.06,34.06,0,0,1-8.76,13.39,33.3,33.3,0,0,1-13.69,7.93,55.76,55.76,0,0,1-15.76,2.26A60.89,60.89,0,0,1,391,235.4Z"/><path d="M596.65,149.19H573.37V134.35h23.28V114.78a56.67,56.67,0,0,1,1.44-12.67,28.94,28.94,0,0,1,5.46-11.43,22.57,22.57,0,0,1,10.1-7.41A35.39,35.39,0,0,1,626.11,81a39.67,39.67,0,0,1,11.33,1.65,23,23,0,0,1,9.68,5.66,24.61,24.61,0,0,1,6.08,9.58,34,34,0,0,1,1.95,11.33v1.44H638.67v-.82a18.72,18.72,0,0,0-1.33-6.9,10.27,10.27,0,0,0-4.54-5.25,13.11,13.11,0,0,0-6.69-1.86,12.23,12.23,0,0,0-6.18,1.65,10.42,10.42,0,0,0-4.33,4.63,22.43,22.43,0,0,0-2,6.18,40.11,40.11,0,0,0-.52,6.49v19.57h34.61v14.84H613.13v88.16H596.65Z"/><path d="M718.71,235.5a25.6,25.6,0,0,1-10.3-6.18,33.12,33.12,0,0,1-7-9.89,43,43,0,0,1-3.5-11.64,80.93,80.93,0,0,1-.93-12.26V141.36H674.52V126.52H697V84.29h16.48v42.23h33.17v14.84H713.45v54.17a65.19,65.19,0,0,0,.62,9,32.88,32.88,0,0,0,2.47,8.65,15.48,15.48,0,0,0,5.77,6.8,15.12,15.12,0,0,0,8.45,2.57,17.4,17.4,0,0,0,7.31-1.65,13.45,13.45,0,0,0,5.77-4.94,21,21,0,0,0,3-7,35,35,0,0,0,.83-7.62v-1h16.48v1.86a45.73,45.73,0,0,1-2.06,13.49,32.27,32.27,0,0,1-6.7,11.95,26,26,0,0,1-11.22,7.52,41,41,0,0,1-13.39,2.26A39.94,39.94,0,0,1,718.71,235.5Z"/><path d="M1258.55,85.94h72.1v14.83H1275V149.6h43.88v14.83H1275v58.09h55.62v14.83h-72.1Z"/><path d="M1483,277.9a32.9,32.9,0,0,1-12.57-5.77,29.37,29.37,0,0,1-8.85-10.61,33.55,33.55,0,0,1-3.61-13.18h16.48a16.34,16.34,0,0,0,3.81,9.27,16.74,16.74,0,0,0,8.34,5.56,35.94,35.94,0,0,0,10.1,1.44,26.05,26.05,0,0,0,10.09-2.06,18.63,18.63,0,0,0,8-6.28,24.79,24.79,0,0,0,4.22-9.37,48.21,48.21,0,0,0,1.13-10.3V217.23a35.33,35.33,0,0,1-6.49,10.82,24.24,24.24,0,0,1-10.3,7,36.92,36.92,0,0,1-12.46,2.16,36.08,36.08,0,0,1-14.93-3.29,26.73,26.73,0,0,1-11.64-9.89,41.64,41.64,0,0,1-6-14.22,72.66,72.66,0,0,1-1.65-15.45V167.58a72.77,72.77,0,0,1,1.65-15.44,41.81,41.81,0,0,1,6-14.22A26.79,26.79,0,0,1,1476,128a36.08,36.08,0,0,1,14.93-3.29,36.92,36.92,0,0,1,12.46,2.16,24.24,24.24,0,0,1,10.3,7,35.44,35.44,0,0,1,6.49,10.82V126.39h16.48V236.6a71.77,71.77,0,0,1-1.23,13.18,38,38,0,0,1-4.74,12.46,34,34,0,0,1-8.86,9.89A33.34,33.34,0,0,1,1510,277.8a54.24,54.24,0,0,1-13.29,1.64A62.56,62.56,0,0,1,1483,277.9Zm24.31-57.58a17.88,17.88,0,0,0,7.83-6.38,25.32,25.32,0,0,0,4-9.38,50.57,50.57,0,0,0,1-10.2V167.58a50.55,50.55,0,0,0-1-10.19,25.21,25.21,0,0,0-4-9.37,17.83,17.83,0,0,0-7.83-6.39,25.35,25.35,0,0,0-10-2.06,27.12,27.12,0,0,0-10.1,2,19.26,19.26,0,0,0-8.24,6.18,24.16,24.16,0,0,0-4.53,9.37,45.06,45.06,0,0,0-1.23,10.5v26.78a44.14,44.14,0,0,0,1.23,10.3,25,25,0,0,0,4.53,9.48,19,19,0,0,0,8.24,6.28,27.12,27.12,0,0,0,10.1,2A25.18,25.18,0,0,0,1507.3,220.32Z"/><path d="M1564.46,222.52h29.25V143h-26.36V128.17h42.84v94.35h26.37v14.83h-72.1Zm29.36-115a9.42,9.42,0,0,1-4.74-4.63,15.32,15.32,0,0,1,0-13.39,9.92,9.92,0,0,1,4.74-4.74,15.32,15.32,0,0,1,13.39,0,9.46,9.46,0,0,1,4.63,4.74,16.18,16.18,0,0,1,0,13.39,9,9,0,0,1-4.63,4.63,16.18,16.18,0,0,1-13.39,0Z"/><path d="M496.12,235.7A33.94,33.94,0,0,1,484.07,230a35.11,35.11,0,0,1-9.06-9.79,37,37,0,0,1-4.95-12.35,67.37,67.37,0,0,1-1.34-13.4V167.72a67.35,67.35,0,0,1,1.34-13.39A38.29,38.29,0,0,1,475,141.87a34.69,34.69,0,0,1,9.06-9.89,32.89,32.89,0,0,1,12.05-5.56,59,59,0,0,1,26.78,0A32.82,32.82,0,0,1,535,132a34.87,34.87,0,0,1,9.07,9.89A38.27,38.27,0,0,1,549,154.33a67.35,67.35,0,0,1,1.34,13.39V194.5A67.37,67.37,0,0,1,549,207.9,37,37,0,0,1,544,220.25,35.29,35.29,0,0,1,535,230a33.86,33.86,0,0,1-12.05,5.66,55.16,55.16,0,0,1-26.78,0Zm23.69-15.14a19.2,19.2,0,0,0,8.24-6.18,24.1,24.1,0,0,0,4.53-9.47,45,45,0,0,0,1.24-10.41V167.72a44.48,44.48,0,0,0-1.24-10.5,24.16,24.16,0,0,0-4.53-9.37,19.2,19.2,0,0,0-8.24-6.18,27.75,27.75,0,0,0-20.49,0,19.12,19.12,0,0,0-8.35,6.18,24.16,24.16,0,0,0-4.53,9.37,45,45,0,0,0-1.23,10.5V194.5a45.52,45.52,0,0,0,1.23,10.41,24.1,24.1,0,0,0,4.53,9.47,19.12,19.12,0,0,0,8.35,6.18,27.75,27.75,0,0,0,20.49,0Z"/><path d="M773.4,126.52h16.48l9.89,90.23L810.27,157h16.48l10.51,59.74,9.89-90.23h16.48L846.12,235.7H829.64l-11.13-63.24L807.39,235.7H790.91Z"/><path d="M898.85,235.4a24.29,24.29,0,0,1-10.71-6.91,28.27,28.27,0,0,1-6.39-11.22,44.76,44.76,0,0,1-1.85-12.67,35.16,35.16,0,0,1,2.27-12.46,24.61,24.61,0,0,1,7.21-10.3,36.28,36.28,0,0,1,11-6.49,56.23,56.23,0,0,1,12.36-3.09,97.21,97.21,0,0,1,12.67-.83h18.74v-10.5a24.15,24.15,0,0,0-2.78-11.33A15.89,15.89,0,0,0,933,142a30.79,30.79,0,0,0-11.44-2.26,37.46,37.46,0,0,0-10.61,1.54,16.6,16.6,0,0,0-8.65,6,15.72,15.72,0,0,0-3.4,9.78H882.37a32.17,32.17,0,0,1,3.09-13.8,28.37,28.37,0,0,1,9-10.92,33.86,33.86,0,0,1,12.88-5.87,65.73,65.73,0,0,1,14.21-1.54,64.46,64.46,0,0,1,12,1.13,36,36,0,0,1,11.33,4.22,30.55,30.55,0,0,1,9.06,7.93,29.9,29.9,0,0,1,5.26,10.72,47.12,47.12,0,0,1,1.54,12.05V235.7H944.17V218.4a30.32,30.32,0,0,1-7.83,10.51,31,31,0,0,1-11.63,6.49,45.27,45.27,0,0,1-13.08,1.95A42.22,42.22,0,0,1,898.85,235.4Zm28.84-14.22a23.75,23.75,0,0,0,9-4.63,18.5,18.5,0,0,0,5.77-8.14,28.54,28.54,0,0,0,1.75-9.79V186.26H925.43a70.54,70.54,0,0,0-7.73.42,40.65,40.65,0,0,0-7.52,1.54,29.51,29.51,0,0,0-7,3.19,13.65,13.65,0,0,0-5,5.57,16.32,16.32,0,0,0-1.75,7.41,18.56,18.56,0,0,0,2.88,10,14.85,14.85,0,0,0,8,6.39,32.31,32.31,0,0,0,10.5,1.75A37.34,37.34,0,0,0,927.69,221.18Z"/><path d="M997.73,126.52h16.48v25.14a56.94,56.94,0,0,1,3.4-9.69,40.31,40.31,0,0,1,5.56-8.85,21.44,21.44,0,0,1,8.24-6.18,25.18,25.18,0,0,1,10-2.06,29,29,0,0,1,11.23,2.26,19.23,19.23,0,0,1,8.76,7.21,28.2,28.2,0,0,1,4.32,10.71,65.32,65.32,0,0,1,1,11.54h-16.48a36.15,36.15,0,0,0-.51-6.08,16,16,0,0,0-2.17-5.66,9.77,9.77,0,0,0-4.53-3.92,15.05,15.05,0,0,0-6-1.23,18.89,18.89,0,0,0-9.37,2.47,19.17,19.17,0,0,0-7.11,6.8,34.82,34.82,0,0,0-4,9.17,59.58,59.58,0,0,0-1.85,9.78,93.61,93.61,0,0,0-.52,9.89V235.7H997.73Z"/><path d="M1114.54,235.81a33.84,33.84,0,0,1-12.16-5.56,35.41,35.41,0,0,1-9.27-9.89,37.23,37.23,0,0,1-5-12.46,67.37,67.37,0,0,1-1.34-13.4V167.72a67.35,67.35,0,0,1,1.34-13.39,38.29,38.29,0,0,1,5-12.46,34.69,34.69,0,0,1,9.06-9.89,32.89,32.89,0,0,1,12-5.56,59,59,0,0,1,26.78,0,32.82,32.82,0,0,1,12,5.56,34.87,34.87,0,0,1,9.07,9.89,38.27,38.27,0,0,1,4.94,12.46,67.35,67.35,0,0,1,1.34,13.39v20.81h-65.09v6a45,45,0,0,0,1.23,10.51,23.44,23.44,0,0,0,4.64,9.37,19.79,19.79,0,0,0,8.44,6.18,28.44,28.44,0,0,0,10.4,2,40,40,0,0,0,10.61-1.44,18.08,18.08,0,0,0,9-5.67,15,15,0,0,0,3.91-9.58h16.48a34,34,0,0,1-3.71,13.5,29.09,29.09,0,0,1-9.27,10.71,35.46,35.46,0,0,1-13,5.77,64.87,64.87,0,0,1-14,1.54A58.38,58.38,0,0,1,1114.54,235.81Zm37.28-62.11v-6a44.48,44.48,0,0,0-1.24-10.5,24.16,24.16,0,0,0-4.53-9.37,19.2,19.2,0,0,0-8.24-6.18,27.75,27.75,0,0,0-20.49,0,19.12,19.12,0,0,0-8.35,6.18,24.16,24.16,0,0,0-4.53,9.37,45,45,0,0,0-1.23,10.5v6Z"/><path d="M1355.37,126.39h16.48v18.33a35.64,35.64,0,0,1,6.49-10.82,24.3,24.3,0,0,1,10.3-7,36.38,36.38,0,0,1,12.26-2.16,35.37,35.37,0,0,1,11.95,2.06,25,25,0,0,1,10,6.59,36,36,0,0,1,6.69,10.2,43.9,43.9,0,0,1,3.3,11.74,91,91,0,0,1,.82,12.25v68h-16.48v-68a50.55,50.55,0,0,0-1-10.19,25.21,25.21,0,0,0-4-9.37,17.91,17.91,0,0,0-7.73-6.39,24.75,24.75,0,0,0-19.77,0,17.79,17.79,0,0,0-7.73,6.39,25.23,25.23,0,0,0-4,9.37,50.55,50.55,0,0,0-1,10.19v68h-16.48Z"/><path d="M1664.37,126.39h16.48v18.33a35.64,35.64,0,0,1,6.49-10.82,24.3,24.3,0,0,1,10.3-7,36.38,36.38,0,0,1,12.26-2.16,35.37,35.37,0,0,1,11.95,2.06,25,25,0,0,1,10,6.59,36,36,0,0,1,6.69,10.2,43.9,43.9,0,0,1,3.3,11.74,91,91,0,0,1,.82,12.25v68h-16.48v-68a50.55,50.55,0,0,0-1-10.19,25.21,25.21,0,0,0-4-9.37,17.91,17.91,0,0,0-7.73-6.39,24.75,24.75,0,0,0-19.77,0,17.79,17.79,0,0,0-7.73,6.39,25.23,25.23,0,0,0-4,9.37,50.55,50.55,0,0,0-1,10.19v68h-16.48Z"/><path d="M1793.54,235.67a33.84,33.84,0,0,1-12.16-5.56,35.41,35.41,0,0,1-9.27-9.89,37.23,37.23,0,0,1-5-12.46,67.37,67.37,0,0,1-1.34-13.4V167.58a67.35,67.35,0,0,1,1.34-13.39,38.29,38.29,0,0,1,5-12.46,34.69,34.69,0,0,1,9.06-9.89,32.89,32.89,0,0,1,12-5.56,59,59,0,0,1,26.78,0,32.82,32.82,0,0,1,12,5.56,34.87,34.87,0,0,1,9.07,9.89,38.27,38.27,0,0,1,4.94,12.46,67.35,67.35,0,0,1,1.34,13.39v20.81h-65.09v6a45,45,0,0,0,1.23,10.51,23.37,23.37,0,0,0,4.64,9.37,19.79,19.79,0,0,0,8.44,6.18,28.44,28.44,0,0,0,10.4,2,40,40,0,0,0,10.61-1.44,18.08,18.08,0,0,0,9-5.67,15,15,0,0,0,3.91-9.58h16.48a34,34,0,0,1-3.71,13.5,29.09,29.09,0,0,1-9.27,10.71,35.46,35.46,0,0,1-13,5.77,64.87,64.87,0,0,1-14,1.54A58.38,58.38,0,0,1,1793.54,235.67Zm37.28-62.11v-6a44.54,44.54,0,0,0-1.24-10.5,24.16,24.16,0,0,0-4.53-9.37,19.2,19.2,0,0,0-8.24-6.18,27.75,27.75,0,0,0-20.49,0,19.12,19.12,0,0,0-8.35,6.18,24.16,24.16,0,0,0-4.53,9.37,45.06,45.06,0,0,0-1.23,10.5v6Z"/><path d="M1896.54,235.67a33.84,33.84,0,0,1-12.16-5.56,35.41,35.41,0,0,1-9.27-9.89,37.23,37.23,0,0,1-5-12.46,67.37,67.37,0,0,1-1.34-13.4V167.58a67.35,67.35,0,0,1,1.34-13.39,38.29,38.29,0,0,1,5-12.46,34.69,34.69,0,0,1,9.06-9.89,32.89,32.89,0,0,1,12-5.56,59,59,0,0,1,26.78,0,32.82,32.82,0,0,1,12,5.56,34.87,34.87,0,0,1,9.07,9.89,38.27,38.27,0,0,1,4.94,12.46,67.35,67.35,0,0,1,1.34,13.39v20.81h-65.09v6a45,45,0,0,0,1.23,10.51,23.37,23.37,0,0,0,4.64,9.37,19.79,19.79,0,0,0,8.44,6.18,28.44,28.44,0,0,0,10.4,2,40,40,0,0,0,10.61-1.44,18.08,18.08,0,0,0,9-5.67,15,15,0,0,0,3.91-9.58h16.48a34,34,0,0,1-3.71,13.5,29.09,29.09,0,0,1-9.27,10.71,35.46,35.46,0,0,1-13,5.77,64.87,64.87,0,0,1-14,1.54A58.38,58.38,0,0,1,1896.54,235.67Zm37.28-62.11v-6a44.54,44.54,0,0,0-1.24-10.5,24.16,24.16,0,0,0-4.53-9.37,19.2,19.2,0,0,0-8.24-6.18,27.75,27.75,0,0,0-20.49,0,19.12,19.12,0,0,0-8.35,6.18,24.16,24.16,0,0,0-4.53,9.37,45.06,45.06,0,0,0-1.23,10.5v6Z"/><path d="M1985.73,126.39h16.48v25.13a56.94,56.94,0,0,1,3.4-9.69,40.31,40.31,0,0,1,5.56-8.85,21.44,21.44,0,0,1,8.24-6.18,25.35,25.35,0,0,1,10-2.06,29,29,0,0,1,11.23,2.26,19.23,19.23,0,0,1,8.76,7.21,28.18,28.18,0,0,1,4.32,10.72,65.12,65.12,0,0,1,1,11.53h-16.48a36.15,36.15,0,0,0-.51-6.08,16.08,16.08,0,0,0-2.17-5.66,9.69,9.69,0,0,0-4.53-3.91,14.89,14.89,0,0,0-6-1.24,18.89,18.89,0,0,0-9.37,2.47,19.17,19.17,0,0,0-7.11,6.8,34.82,34.82,0,0,0-4,9.17,59.58,59.58,0,0,0-1.85,9.78,93.61,93.61,0,0,0-.52,9.89v57.88h-16.48Z"/></g></svg>