<svg xmlns="http://www.w3.org/2000/svg" viewBox="0 0 1846 320">
  <g id="_33" data-name="33">
    <g>
      <rect x="32" y="27" width="15" height="267"/>
      <rect x="32" y="27" width="15" height="267"/>
      <path d="M106.5,235.69a33.2,33.2,0,0,1-13.2-7.05,31.13,31.13,0,0,1-8.8-12.42A41,41,0,0,1,81.6,201h16a22.8,22.8,0,0,0,3.2,11.7,17.67,17.67,0,0,0,8.9,7.77,31.23,31.23,0,0,0,11.7,2.27A28,28,0,0,0,133.5,220a18.61,18.61,0,0,0,8.9-8.91,28.51,28.51,0,0,0,3-12.73,25.86,25.86,0,0,0-4.2-14.08,31.81,31.81,0,0,0-10.6-10.46q-6.41-3.83-13-7.14a110.51,110.51,0,0,1-12.7-7.46,53.87,53.87,0,0,1-11-9.94,44.7,44.7,0,0,1-9.31-18.44,30.22,30.22,0,0,1-.67-3.76,47.2,47.2,0,0,1,2.28-21,37.06,37.06,0,0,1,8-13.36,29.79,29.79,0,0,1,12.7-8.18A48.57,48.57,0,0,1,122,82.14a51.9,51.9,0,0,1,14.4,2.07,30.67,30.67,0,0,1,12.7,7.25,32.25,32.25,0,0,1,8.2,12.42,42.45,42.45,0,0,1,2.7,14.91V119H144v-.21a24.51,24.51,0,0,0-2.8-11.28,17,17,0,0,0-8.2-8,26.17,26.17,0,0,0-11-2.48,27,27,0,0,0-9,1.55,17.32,17.32,0,0,0-7.5,5.18A22.63,22.63,0,0,0,101,112a31.33,31.33,0,0,0-1.4,9.32,26.62,26.62,0,0,0,4.1,14.29A30.87,30.87,0,0,0,114.2,146q6.39,3.84,13,7a96.11,96.11,0,0,1,12.7,7.46,58.88,58.88,0,0,1,11,9.94,42.29,42.29,0,0,1,7.6,12.94,41.8,41.8,0,0,1,2.7,14.7,47.85,47.85,0,0,1-2.7,15.84A34.36,34.36,0,0,1,150,227.4a32,32,0,0,1-13.3,8,52.32,52.32,0,0,1-15.3,2.28A57,57,0,0,1,106.5,235.69Z"/>
      <path d="M311,149H287V135h23V115.17a57.44,57.44,0,0,1,1.45-12.83A29.38,29.38,0,0,1,317,90.76a22.82,22.82,0,0,1,10.18-7.52A35.74,35.74,0,0,1,339.71,81a40,40,0,0,1,11.42,1.67,23.12,23.12,0,0,1,9.77,5.74,25,25,0,0,1,6.13,9.7,34.69,34.69,0,0,1,2,11.48V111H353v-.82a18.52,18.52,0,0,0-1.36-6.9A10.35,10.35,0,0,0,347,98a13.6,13.6,0,0,0-6.81-1.85,12.77,12.77,0,0,0-7.46,2.38,9.42,9.42,0,0,0-3,3.41,22.09,22.09,0,0,0-2.25,6.67,39.93,39.93,0,0,0-.52,6.49V134h35v15H327v88H311Z"/>
      <path d="M432.68,235.23a25.56,25.56,0,0,1-10.27-6.18,33.18,33.18,0,0,1-7-9.89,43,43,0,0,1-3.5-11.64,82.24,82.24,0,0,1-.92-12.26V141H389V126h22V84h17v42h33v15H428v54.25a65.34,65.34,0,0,0,.61,9,32.71,32.71,0,0,0,2.46,8.66,15.38,15.38,0,0,0,5.74,6.81,14.88,14.88,0,0,0,8.39,2.58,17.27,17.27,0,0,0,7.28-1.65,13.42,13.42,0,0,0,5.73-4.95,21.23,21.23,0,0,0,3-7A35,35,0,0,0,462,201v-1h16v1.85a45.75,45.75,0,0,1-2.06,13.5,32.16,32.16,0,0,1-6.67,11.94,25.91,25.91,0,0,1-11.21,7.52,40.71,40.71,0,0,1-13.35,2.27A39.86,39.86,0,0,1,432.68,235.23Z"/>
      <path d="M973,86h72v15H989v49h44v15H989v58h56v14H973Z"/>
      <path d="M1201.45,278.28a36.66,36.66,0,0,1-12.1-4.06,29.49,29.49,0,0,1-12.25-13,34.47,34.47,0,0,1-3.5-13.19h15a16.32,16.32,0,0,0,3.79,9.27,16.54,16.54,0,0,0,8.28,5.56,35.39,35.39,0,0,0,10,1.44,25.71,25.71,0,0,0,10-2.06,18.46,18.46,0,0,0,8-6.28,24.9,24.9,0,0,0,4.2-9.37,48.85,48.85,0,0,0,1.12-10.3V216.89a35.58,35.58,0,0,1-6.44,10.82,24.05,24.05,0,0,1-10.23,7,36.47,36.47,0,0,1-12.38,2.17,35.68,35.68,0,0,1-14.83-3.3,26.6,26.6,0,0,1-11.55-9.89,41.77,41.77,0,0,1-5.93-14.21A72.79,72.79,0,0,1,1171,194V167.25a72.79,72.79,0,0,1,1.64-15.45,41.9,41.9,0,0,1,5.93-14.22,26.58,26.58,0,0,1,11.55-9.88,35.52,35.52,0,0,1,14.83-3.3,36.46,36.46,0,0,1,12.38,2.16,24.07,24.07,0,0,1,10.23,7,35.53,35.53,0,0,1,6.44,10.81V126h16V236.25a73.54,73.54,0,0,1-1.2,13.19,38.4,38.4,0,0,1-4.6,12.47,33.62,33.62,0,0,1-8.6,9.89,31.82,31.82,0,0,1-11.5,5.67,50.7,50.7,0,0,1-12.9,1.65A57.67,57.67,0,0,1,1201.45,278.28Zm19.67-57.93A17.85,17.85,0,0,0,1229,214a25.34,25.34,0,0,0,4-9.38,50.74,50.74,0,0,0,1-10.21V167.58a50.74,50.74,0,0,0-1-10.21,25.41,25.41,0,0,0-4-9.38,17.92,17.92,0,0,0-7.83-6.39,25.4,25.4,0,0,0-10-2.06,27.12,27.12,0,0,0-10.1,2,19.39,19.39,0,0,0-8.25,6.18,24.27,24.27,0,0,0-4.53,9.38,44.65,44.65,0,0,0-1.24,10.52v26.79a43.71,43.71,0,0,0,1.24,10.31,25,25,0,0,0,4.53,9.48,18.94,18.94,0,0,0,8.25,6.29,27.12,27.12,0,0,0,10.1,2A25.4,25.4,0,0,0,1221.12,220.35Z"/>
      <path d="M1279,222h29V143h-26V128h42v94h27v15h-72Zm28.82-114.43a9.42,9.42,0,0,1-4.74-4.63,15.32,15.32,0,0,1,0-13.39,9.92,9.92,0,0,1,4.74-4.74,15.32,15.32,0,0,1,13.39,0,9.46,9.46,0,0,1,4.63,4.74,16.18,16.18,0,0,1,0,13.39,9,9,0,0,1-4.63,4.63,16.18,16.18,0,0,1-13.39,0Z"/>
      <path d="M210.54,236a34.13,34.13,0,0,1-12.11-5.7,35.29,35.29,0,0,1-9.11-9.83,37,37,0,0,1-5-12.43A67.17,67.17,0,0,1,183,194.57V167.65a67.14,67.14,0,0,1,1.35-13.45,38.09,38.09,0,0,1,5-12.53,33.9,33.9,0,0,1,23.11-15.94A58.21,58.21,0,0,1,224,124.58a59.09,59.09,0,0,1,11.59,1.15,34,34,0,0,1,23.09,15.94,38.3,38.3,0,0,1,5,12.53A67.14,67.14,0,0,1,265,167.65v26.92A67.17,67.17,0,0,1,263.65,208a37.19,37.19,0,0,1-5,12.43,35.29,35.29,0,0,1-9.11,9.83,34.22,34.22,0,0,1-12.11,5.7,55.4,55.4,0,0,1-26.92,0Zm23.34-15.11a19.52,19.52,0,0,0,8.31-6.23,24.49,24.49,0,0,0,4.56-9.55A45.2,45.2,0,0,0,248,194.61v-27A44.72,44.72,0,0,0,246.75,157a24.55,24.55,0,0,0-4.56-9.45,19.6,19.6,0,0,0-8.31-6.23,28,28,0,0,0-10.38-2,28.34,28.34,0,0,0-10.28,2,19.48,19.48,0,0,0-8.41,6.23,24.55,24.55,0,0,0-4.56,9.45A44.72,44.72,0,0,0,199,167.62v27a45.2,45.2,0,0,0,1.25,10.49,24.49,24.49,0,0,0,4.56,9.55,19.4,19.4,0,0,0,8.41,6.23,28.34,28.34,0,0,0,10.28,2A28,28,0,0,0,233.88,220.88Z"/>
      <path d="M487.47,127h16.87l9.73,88.79L524.4,157h16.22L551,215.79,560.69,127h16.86L560.07,236H543.62l-11.11-63.14L521.41,236H505Z"/>
      <path d="M614,235.69a23.52,23.52,0,0,1-10.4-6.87,28.26,28.26,0,0,1-6.2-11.18A45.37,45.37,0,0,1,595.6,205a36,36,0,0,1,2.2-12.41,24.47,24.47,0,0,1,7-10.26,35.1,35.1,0,0,1,10.7-6.46,53.75,53.75,0,0,1,12-3.08,93.19,93.19,0,0,1,12.3-.82H658V161.07a26.66,26.66,0,0,0-2.7-11.78,15.78,15.78,0,0,0-8.2-7.93A28,28,0,0,0,636,139a34.12,34.12,0,0,0-10.3,1.61,16.1,16.1,0,0,0-8.4,6.21A17.12,17.12,0,0,0,614,157H598a35.78,35.78,0,0,1,4.28-17,26.37,26.37,0,0,1,5.6-7.17,32.23,32.23,0,0,1,14.32-7.64,59.83,59.83,0,0,1,13.8-1.61,58.62,58.62,0,0,1,11.6,1.18,33.61,33.61,0,0,1,11,4.39,30.48,30.48,0,0,1,8.8,8.25,32.16,32.16,0,0,1,5.1,11.15,52.34,52.34,0,0,1,1.5,12.53V236H658V218.77a30.33,30.33,0,0,1-7.6,10.46,29.83,29.83,0,0,1-11.3,6.46,42.77,42.77,0,0,1-12.7,1.95A39.85,39.85,0,0,1,614,235.69Zm27.52-14.77a23.7,23.7,0,0,0,9-4.64,18.47,18.47,0,0,0,5.77-8.13,28.78,28.78,0,0,0,1.75-9.79V186H639.25a72.94,72.94,0,0,0-7.72.41A40.67,40.67,0,0,0,624,188a29.12,29.12,0,0,0-7,3.19,14.19,14.19,0,0,0-6.28,8.9,16.42,16.42,0,0,0-.52,4.19,18.59,18.59,0,0,0,2.88,9.88,14.82,14.82,0,0,0,8,6.39,32.58,32.58,0,0,0,10.5,1.75A37.81,37.81,0,0,0,641.52,220.92Z"/>
      <path d="M712,127h16v25.07a55.45,55.45,0,0,1,3.39-9.66,39.91,39.91,0,0,1,5.55-8.83,21.37,21.37,0,0,1,8.22-6.17,25.16,25.16,0,0,1,10-2,28.88,28.88,0,0,1,11.2,2.26,19.05,19.05,0,0,1,8.73,7.19,28.07,28.07,0,0,1,4.32,10.68,65.93,65.93,0,0,1,1,11.51H764a35.83,35.83,0,0,0-.51-6.06,16.06,16.06,0,0,0-2.16-5.65,9.77,9.77,0,0,0-4.52-3.91,15,15,0,0,0-6-1.23,18.82,18.82,0,0,0-9.35,2.47,19.14,19.14,0,0,0-7.09,6.78,34.93,34.93,0,0,0-4,9.14,59.54,59.54,0,0,0-1.85,9.76,95.91,95.91,0,0,0-.51,9.86V236H712Z"/>
      <path d="M828,235.45A32.52,32.52,0,0,1,816.2,230a34.63,34.63,0,0,1-9-9.71A36.67,36.67,0,0,1,802.3,208a66.34,66.34,0,0,1-1.3-13.15V168.19a66.62,66.62,0,0,1,1.35-13.39,37.81,37.81,0,0,1,5-12.46,34.57,34.57,0,0,1,11.14-11.27,35,35,0,0,1,11.95-4.58,59.64,59.64,0,0,1,23.21,0,33.93,33.93,0,0,1,23.06,15.85,38,38,0,0,1,5,12.46A66.62,66.62,0,0,1,883,168.19V189H817v5.87a44.53,44.53,0,0,0,1.2,10.32,23.24,23.24,0,0,0,4.5,9.21,19.26,19.26,0,0,0,8.2,6.07,27.45,27.45,0,0,0,10.1,1.92A38.52,38.52,0,0,0,851.3,221a17.55,17.55,0,0,0,8.7-5.57,14.89,14.89,0,0,0,3.8-9.41h16a33.75,33.75,0,0,1-3.6,13.26,28.5,28.5,0,0,1-9,10.52,34.27,34.27,0,0,1-12.6,5.67A62.44,62.44,0,0,1,841,237,56.27,56.27,0,0,1,828,235.45ZM866,174v-6a44.06,44.06,0,0,0-1.25-10.51,24.22,24.22,0,0,0-4.56-9.37,19.41,19.41,0,0,0-8.31-6.18,28,28,0,0,0-10.38-2,28.32,28.32,0,0,0-10.28,2,19.29,19.29,0,0,0-8.41,6.18,24.22,24.22,0,0,0-4.56,9.37A44.06,44.06,0,0,0,817,168v6Z"/>
      <path d="M1070,126h16v18.3a35.16,35.16,0,0,1,6.51-10.79,24.33,24.33,0,0,1,10.33-7,36.65,36.65,0,0,1,12.3-2.16,35.6,35.6,0,0,1,12,2.06,25.17,25.17,0,0,1,10,6.58,36.17,36.17,0,0,1,6.72,10.18,43.87,43.87,0,0,1,3.3,11.72,90.86,90.86,0,0,1,.83,12.24V235h-17V167a51.44,51.44,0,0,0-1-10.2,25.57,25.57,0,0,0-4-9.37,17.94,17.94,0,0,0-7.67-6.39,24.44,24.44,0,0,0-19.64,0,17.89,17.89,0,0,0-7.67,6.39,25.24,25.24,0,0,0-4,9.37,51.44,51.44,0,0,0-1,10.2v68h-16Z"/>
      <path d="M1379,126h16v18.3a35.16,35.16,0,0,1,6.51-10.79,24.33,24.33,0,0,1,10.33-7,36.65,36.65,0,0,1,12.3-2.16,35.6,35.6,0,0,1,12,2.06,25.17,25.17,0,0,1,10,6.58,36.17,36.17,0,0,1,6.72,10.18,43.87,43.87,0,0,1,3.3,11.72,90.86,90.86,0,0,1,.83,12.24V235h-17V167a51.44,51.44,0,0,0-1-10.2,25.57,25.57,0,0,0-4-9.37,17.94,17.94,0,0,0-7.67-6.39,24.44,24.44,0,0,0-19.64,0,17.89,17.89,0,0,0-7.67,6.39,25.24,25.24,0,0,0-4,9.37,51.44,51.44,0,0,0-1,10.2v68h-16Z"/>
      <path d="M1507,235.45a32.52,32.52,0,0,1-11.8-5.47,34.63,34.63,0,0,1-9-9.71,36.67,36.67,0,0,1-4.9-12.25,66.34,66.34,0,0,1-1.3-13.15V168.19a66.62,66.62,0,0,1,1.35-13.39,37.81,37.81,0,0,1,5-12.46,34.57,34.57,0,0,1,11.14-11.27,35,35,0,0,1,12-4.58,59.64,59.64,0,0,1,23.21,0,33.93,33.93,0,0,1,23.06,15.85,38,38,0,0,1,5,12.46,66.62,66.62,0,0,1,1.35,13.39V189h-66v5.87a44.53,44.53,0,0,0,1.2,10.32,23.24,23.24,0,0,0,4.5,9.21,19.26,19.26,0,0,0,8.2,6.07,27.45,27.45,0,0,0,10.1,1.92,38.52,38.52,0,0,0,10.3-1.41,17.55,17.55,0,0,0,8.7-5.57,14.89,14.89,0,0,0,3.8-9.41h16a33.75,33.75,0,0,1-3.6,13.26,28.5,28.5,0,0,1-9,10.52,34.27,34.27,0,0,1-12.6,5.67A62.44,62.44,0,0,1,1520,237,56.27,56.27,0,0,1,1507,235.45ZM1545,174v-6a44.06,44.06,0,0,0-1.25-10.51,24.22,24.22,0,0,0-4.56-9.37,19.41,19.41,0,0,0-8.31-6.18,28,28,0,0,0-10.38-2,28.32,28.32,0,0,0-10.28,2,19.29,19.29,0,0,0-8.41,6.18,24.22,24.22,0,0,0-4.56,9.37A44.06,44.06,0,0,0,1496,168v6Z"/>
      <path d="M1610,235.45a32.52,32.52,0,0,1-11.8-5.47,34.63,34.63,0,0,1-9-9.71,36.67,36.67,0,0,1-4.9-12.25,66.34,66.34,0,0,1-1.3-13.15V168.19a66.62,66.62,0,0,1,1.35-13.39,37.81,37.81,0,0,1,5-12.46,34.57,34.57,0,0,1,11.14-11.27,35,35,0,0,1,12-4.58,59.64,59.64,0,0,1,23.21,0,33.93,33.93,0,0,1,23.06,15.85,38,38,0,0,1,5,12.46,66.62,66.62,0,0,1,1.35,13.39V189h-66v5.87a44.53,44.53,0,0,0,1.2,10.32,23.24,23.24,0,0,0,4.5,9.21,19.26,19.26,0,0,0,8.2,6.07,27.45,27.45,0,0,0,10.1,1.92,38.52,38.52,0,0,0,10.3-1.41,17.55,17.55,0,0,0,8.7-5.57,14.89,14.89,0,0,0,3.8-9.41h16a33.75,33.75,0,0,1-3.6,13.26,28.5,28.5,0,0,1-9,10.52,34.27,34.27,0,0,1-12.6,5.67A62.44,62.44,0,0,1,1623,237,56.27,56.27,0,0,1,1610,235.45ZM1648,174v-6a44.06,44.06,0,0,0-1.25-10.51,24.22,24.22,0,0,0-4.56-9.37,19.41,19.41,0,0,0-8.31-6.18,28,28,0,0,0-10.38-2,28.32,28.32,0,0,0-10.28,2,19.29,19.29,0,0,0-8.41,6.18,24.22,24.22,0,0,0-4.56,9.37A44.06,44.06,0,0,0,1599,168v6Z"/>
      <path d="M1700,126h16v25.07a55.45,55.45,0,0,1,3.39-9.66,39.91,39.91,0,0,1,5.55-8.83,21.37,21.37,0,0,1,8.22-6.17,25.16,25.16,0,0,1,10-2,28.88,28.88,0,0,1,11.2,2.26,19.05,19.05,0,0,1,8.73,7.19,28.07,28.07,0,0,1,4.32,10.68,65.93,65.93,0,0,1,1,11.51H1752a35.83,35.83,0,0,0-.51-6.06,16.06,16.06,0,0,0-2.16-5.65,9.77,9.77,0,0,0-4.52-3.91,15,15,0,0,0-6-1.23,18.82,18.82,0,0,0-9.35,2.47,19.14,19.14,0,0,0-7.09,6.78,34.93,34.93,0,0,0-4,9.14,59.54,59.54,0,0,0-1.85,9.76,95.91,95.91,0,0,0-.51,9.86V235h-16Z"/>
    </g>
  </g>
</svg>
